<?xml version="1.0" encoding="UTF-8" standalone="no"?>
<!-- Generator: Adobe Illustrator 19.2.1, SVG Export Plug-In . SVG Version: 6.00 Build 0)  -->

<svg
   xmlns:dc="http://purl.org/dc/elements/1.1/"
   xmlns:cc="http://creativecommons.org/ns#"
   xmlns:rdf="http://www.w3.org/1999/02/22-rdf-syntax-ns#"
   xmlns:svg="http://www.w3.org/2000/svg"
   xmlns="http://www.w3.org/2000/svg"
   xmlns:sodipodi="http://sodipodi.sourceforge.net/DTD/sodipodi-0.dtd"
   xmlns:inkscape="http://www.inkscape.org/namespaces/inkscape"
   version="1.1"
   id="Layer_1"
   x="0px"
   y="0px"
   width="480"
   height="600"
   viewBox="0 0 480 600"
   enable-background="new 0 0 864 864"
   xml:space="preserve"
   sodipodi:docname="00381 Flower Mandala.svg"
   inkscape:version="0.92.4 (5da689c313, 2019-01-14)"><metadata
   id="metadata15"><rdf:RDF><cc:Work
       rdf:about=""><dc:format>image/svg+xml</dc:format><dc:type
         rdf:resource="http://purl.org/dc/dcmitype/StillImage" /></cc:Work></rdf:RDF></metadata><defs
   id="defs13" /><sodipodi:namedview
   pagecolor="#ffffff"
   bordercolor="#666666"
   borderopacity="1"
   objecttolerance="10"
   gridtolerance="10"
   guidetolerance="10"
   inkscape:pageopacity="0"
   inkscape:pageshadow="2"
   inkscape:window-width="1280"
   inkscape:window-height="962"
   id="namedview11"
   showgrid="false"
   inkscape:zoom="1.1125147"
   inkscape:cx="143.28685"
   inkscape:cy="337.01152"
   inkscape:window-x="-8"
   inkscape:window-y="48"
   inkscape:window-maximized="1"
   inkscape:current-layer="Layer_1" />


<path
   inkscape:connector-curvature="0"
   id="path1649"
   d="M 472.54997,305.42514 469.25532,300.26208 C 458.87573,283.99641 447.8021,270.39322 436.0646,259.4626 440.9091,255.66342 445.75697,251.54844 450.60709,247.11084 L 455.1257,242.97638 450.60709,238.84198 C 445.74841,234.39661 440.89204,230.27516 436.03904,226.47041 447.77079,215.54226 458.83913,201.94386 469.21399,185.68544 L 472.50859,180.52239 467.07393,177.69832 C 449.95235,168.80179 433.56095,162.55796 417.93087,158.96051 420.22806,153.24536 422.37021,147.25483 424.35273,140.98346 L 426.19872,135.1436 420.21827,133.8224 C 413.78734,132.40178 407.52037,131.2607 401.41464,130.39217 406.10892,115.06444 408.89415,97.756658 409.74978,78.492758 L 410.02144,72.374148 403.90288,72.645798 C 384.62654,73.501998 367.30913,76.290428 351.97419,80.990118 351.10617,74.895028 349.9665,68.639148 348.54846,62.219988 L 347.22721,56.239538 341.3874,58.085588 C 335.10827,60.070638 329.11081,62.215658 323.38924,64.516118 319.79112,48.892068 313.54864,32.507418 304.65594,15.393258 L 301.83192,9.9585485 296.66887,13.253088 C 280.40342,23.632568 266.80045,34.705918 255.86989,46.443298 252.06902,41.596278 247.95218,36.745868 243.51228,31.893218 L 239.37782,27.374598 235.24341,31.893218 C 230.79766,36.752228 226.67592,41.609108 222.87088,46.462498 211.94381,34.733228 198.34743,23.667248 182.09223,13.294358 L 176.92918,9.9998185 174.1051,15.434528 C 165.20846,32.556348 158.96452,48.947918 155.36712,64.578278 149.65467,62.282368 143.66713,60.141468 137.39897,58.159958 L 131.55911,56.313918 130.23791,62.294368 C 128.8174,68.724788 127.67638,74.991248 126.80791,81.096468 111.47798,76.400508 94.167216,73.614378 74.899599,72.758578 L 68.780982,72.486918 69.052641,78.605538 C 69.908833,97.881478 72.697158,115.19872 77.396783,130.53355 71.298717,131.40162 65.039681,132.54175 58.6172,133.96051 L 52.636749,135.28171 54.482795,141.12151 C 56.467965,147.40116 58.613258,153.39912 60.913947,159.12108 45.292596,162.71954 28.910992,168.96135 11.800214,177.85236 L 6.365334,180.67666 9.659931,185.83971 C 20.039521,202.10533 31.113151,215.70858 42.8507,226.6392 38.006152,230.43838 33.158283,234.55336 28.308161,238.99095 L 23.789548,243.12541 28.308161,247.25982 C 33.166841,251.70518 38.023268,255.82664 42.876262,259.63139 31.144455,270.55954 20.076173,284.15794 9.701257,300.41635 L 6.406717,305.5794 11.841427,308.40348 C 28.963015,317.30001 45.354359,323.54384 60.984494,327.14129 58.687296,332.85644 56.545099,338.84691 54.562576,345.11834 L 52.71653,350.9582 58.69698,352.27939 C 65.127907,353.70002 71.394938,354.8411 77.500605,355.70962 72.806328,371.03736 70.0211,388.34519 69.165471,407.60903 L 68.893812,413.72765 75.012429,413.45599 C 94.288656,412.59974 111.60612,409.81136 126.94112,405.11162 127.80908,411.20671 128.94876,417.46265 130.36679,423.88175 L 131.68799,429.8622 137.52785,428.01621 C 143.80698,426.03121 149.80449,423.88614 155.52601,421.58568 159.12413,437.20973 165.36662,453.59438 174.25931,470.70853 L 177.08339,476.14324 182.24644,472.8487 C 198.51184,462.46923 212.11486,451.39582 223.04537,439.65838 226.84623,444.50541 230.96307,449.35587 235.40297,454.20852 L 239.53743,458.72714 243.67184,454.20852 C 248.1176,449.34951 252.23933,444.49268 256.04431,439.63924 266.97139,451.36846 280.56771,462.43443 296.82302,472.80732 L 301.98608,476.10192 304.81015,470.66721 C 313.70679,453.54534 319.95074,437.15382 323.54813,421.52346 329.26058,423.81937 335.24818,425.96027 341.51628,427.94178 L 347.35609,429.78777 348.67728,423.80732 C 350.09785,417.37695 351.23888,411.11037 352.10734,405.00516 367.43727,409.70112 384.74804,412.48731 404.01565,413.34305 L 410.13427,413.61471 409.86261,407.49609 C 409.00647,388.22009 406.21815,370.90291 401.51852,355.56802 407.61659,354.69995 413.87568,353.55982 420.2981,352.14106 L 426.27856,350.81986 424.43251,344.98006 C 422.44734,338.70041 420.3021,332.7024 418.00141,326.98049 433.62271,323.38197 450.00426,317.14022 467.11509,308.24921 Z M 446.82429,242.97649 C 427.85874,260.32904 409.07432,272.63389 390.46443,279.89443 386.26781,274.97596 381.82543,270.50734 377.13729,266.49354 390.87865,261.10274 402.8637,254.65172 412.96093,247.25672 413.42053,246.92837 418.52092,243.00543 418.55853,242.97655 418.52097,242.94767 413.42053,239.02474 412.96093,238.69638 402.85238,231.29305 390.8519,224.83583 377.09118,219.44138 381.7769,215.42645 386.21708,210.9567 390.41162,206.03756 409.03873,213.29534 427.84084,225.60757 446.82429,242.97649 Z M 409.99041,276.84616 C 415.70923,281.98095 420.79953,287.2919 425.21185,292.74092 418.68712,295.24846 411.62977,297.30215 404.10708,298.89061 400.97408,293.72677 397.65651,288.89619 394.1519,284.40668 399.42356,282.27169 404.70367,279.74861 409.99041,276.84616 Z M 329.87946,242.97323 C 345.52141,239.49345 359.58915,232.99693 372.05154,223.51605 372.73579,223.76558 373.4224,224.02187 374.11311,224.29054 387.55179,229.47932 399.38252,235.75615 409.31991,242.97644 399.41118,250.18158 387.56857,256.46719 374.10017,261.66729 373.42915,261.92825 372.76202,262.17795 372.0972,262.42079 359.62226,252.93804 345.53892,246.4454 329.87946,242.97323 Z M 394.09757,201.52469 C 397.59767,197.03828 400.9109,192.2113 404.04008,187.05191 411.56046,188.63935 418.62463,190.69372 425.17052,193.20661 420.77195,198.64279 415.68468,203.952 409.96125,209.0909 404.666,206.18524 399.37751,203.66046 394.09757,201.52469 Z M 464.49004,182.67101 C 454.14457,198.88337 443.16463,212.33589 431.55016,223.04018 426.0538,218.95301 420.56239,215.27758 415.07757,212.01401 420.58981,206.95101 425.50445,201.73869 429.79527,196.39863 430.15425,195.96251 434.06553,190.85317 434.09435,190.8155 434.05055,190.79732 428.10867,188.32817 427.57965,188.12999 421.1887,185.64868 414.32058,183.59077 407.00886,181.96165 410.12616,176.39266 413.04336,170.46367 415.75911,164.17581 431.17546,167.63796 447.41716,173.79971 464.49004,182.67101 Z M 404.15151,78.244188 C 403.29836,97.453468 400.51667,114.59065 395.81204,129.66593 389.0085,128.87465 382.41503,128.43741 376.03325,128.35346 378.27415,121.21571 379.92331,114.24732 380.96873,107.48004 381.06157,106.92282 381.89418,100.54239 381.90026,100.49533 381.85324,100.50152 375.47282,101.33406 374.91565,101.42691 368.14043,102.47357 361.16365,104.12532 354.01712,106.37021 353.93199,99.988768 353.49357,93.395638 352.70116,86.592438 367.78336,81.882508 384.93017,79.097848 404.15151,78.244188 Z M 375.36759,107.02805 C 374.27684,113.93242 372.52674,121.07102 370.14103,128.38015 364.10248,128.51145 358.26036,128.96918 352.62003,129.75962 353.4068,124.12683 353.86184,118.29249 353.99162,112.26283 361.29788,109.87757 368.44244,108.12471 375.36759,107.02805 Z M 343.07659,63.428858 C 348.6216,88.529748 349.88559,110.95002 346.86851,130.69694 340.51072,131.87209 334.41952,133.48498 328.59942,135.53811 330.80152,120.94231 331.20735,107.33743 329.8517,94.895538 329.79714,94.333238 328.94996,87.954728 328.94376,87.907778 328.89991,87.925908 322.95239,90.381428 322.43824,90.615358 310.97252,95.667888 299.38017,102.83205 287.82803,112.05192 286.69387,105.98645 285.04302,99.906348 282.88022,93.814248 298.47922,81.311548 318.54289,71.184528 343.07659,63.428858 Z M 284.60139,164.70432 C 289.40883,149.41814 290.81656,133.98698 288.83697,118.45379 289.39521,117.98598 289.96048,117.51951 290.53854,117.05558 301.75146,108.01176 313.10261,100.90448 324.32431,95.908528 325.60976,108.09228 325.13197,121.49109 322.90121,135.7551 322.7917,136.46671 322.67437,137.16925 322.55231,137.8665 308.1025,143.92881 295.4381,152.879 284.60139,164.70432 Z M 280.81487,88.365688 C 278.67955,83.091268 276.15584,77.808408 273.25232,72.518838 278.38728,66.799748 283.69846,61.709208 289.1477,57.296678 291.65626,63.823988 293.71045,70.884268 295.2992,78.410388 290.13525,81.543338 285.30444,84.860968 280.81487,88.365688 Z M 299.68336,17.977158 C 308.55095,35.042828 314.71117,51.277998 318.17411,66.688488 311.88642,69.404918 305.95765,72.322968 300.38894,75.441108 298.76039,68.135858 296.70378,61.273488 294.22438,54.887548 294.02625,54.358528 291.55705,48.416648 291.53887,48.372898 291.5012,48.401728 286.39192,52.312948 285.95574,52.671988 280.61145,56.966118 275.39514,61.885098 270.32837,67.402688 267.06412,61.918548 263.38813,56.427648 259.30051,50.931848 270.00705,39.311858 283.46419,28.327068 299.68336,17.977158 Z M 179.07779,18.018418 C 195.28694,28.361918 208.73738,39.339558 219.44065,50.951498 215.35354,56.447918 211.67817,61.939438 208.41466,67.424198 203.35363,61.914658 198.14339,57.002268 192.80547,52.713258 192.36929,52.354218 187.25995,48.442998 187.22229,48.414168 187.2041,48.457968 184.73495,54.399858 184.53677,54.928818 182.05552,61.319598 179.99766,68.187598 178.36855,75.499098 172.79945,72.382138 166.87046,69.465218 160.58254,66.749858 164.04458,51.333398 170.20643,35.091478 179.07779,18.018418 Z M 205.4916,72.540408 C 202.58605,77.835538 200.06145,83.123918 197.92573,88.403798 193.44095,84.905948 188.61583,81.594858 183.45886,78.467538 185.04625,70.947548 187.10056,63.883668 189.6134,57.337998 195.04743,61.734778 200.35456,66.819738 205.4916,72.540408 Z M 135.7099,63.503238 C 160.2204,71.251588 180.26893,81.366998 195.86173,93.853428 193.70051,99.947048 192.0518,106.02862 190.91984,112.0955 179.38053,102.89055 167.80125,95.736638 156.34842,90.689738 155.83421,90.455798 149.88664,88.000278 149.84284,87.982148 149.83659,88.029168 148.98946,94.407618 148.9349,94.969908 147.57773,107.42577 147.98592,121.0472 150.19445,135.66152 144.37451,133.61099 138.2836,132.00057 131.9262,130.82762 128.89808,111.06702 130.15971,88.627828 135.7099,63.503238 Z M 194.17947,164.78202 C 183.34496,152.97561 170.68495,144.04091 156.24308,137.98862 156.11702,137.27127 155.99569,136.54851 155.88297,135.81591 153.65733,121.58337 153.1778,108.19925 154.46206,95.983018 165.65624,100.96168 177.02106,108.07482 188.25865,117.13874 188.82015,117.58933 189.36994,118.04228 189.9127,118.49664 187.93783,134.0417 189.35677,149.48446 194.17947,164.78202 Z M 103.43478,107.14093 C 110.34191,108.23213 117.48343,109.98325 124.79555,112.37037 124.92684,118.40903 125.38458,124.25143 126.1749,129.89187 120.53953,129.10392 114.70254,128.64809 108.66984,128.51781 106.28453,121.21126 104.53149,114.06631 103.43478,107.14093 Z M 74.650967,78.356958 C 93.864026,79.210278 111.00419,81.992918 126.08155,86.699128 125.29022,93.502728 124.85292,100.0962 124.76897,106.47792 117.62813,104.23561 110.65686,102.58556 103.88683,101.53974 103.3296,101.44689 96.94918,100.61435 96.90217,100.60816 96.9083,100.65517 97.74085,107.03559 97.83375,107.59282 98.88041,114.3682 100.53221,121.34515 102.77722,128.49185 96.39567,128.5767 89.802416,129.01473 82.999106,129.8068 78.289234,114.72482 75.504682,97.578178 74.650967,78.356958 Z M 14.383935,182.82511 C 31.446236,173.95932 47.678357,167.79977 63.08621,164.33644 65.802693,170.62419 68.720794,176.55284 71.838939,182.12155 64.537013,183.74982 57.677624,185.80576 51.294329,188.28403 50.76531,188.48221 44.823427,190.95142 44.77968,190.9696 44.808507,191.00721 48.719728,196.11655 49.078769,196.55273 53.372735,201.8969 58.291602,207.11305 63.809021,212.17965 58.325102,215.44418 52.834483,219.1204 47.338966,223.20818 35.71892,212.50176 24.733966,199.0445 14.383935,182.82511 Z M 74.808164,187.21107 C 77.941172,192.37497 81.258684,197.20555 84.763345,201.69506 79.491799,203.83005 74.211695,206.35319 68.924891,209.25558 63.206078,204.12085 58.11577,198.80984 53.703456,193.36082 60.228183,190.85322 67.285419,188.79959 74.808164,187.21107 Z M 32.090956,243.12525 C 51.056451,225.77271 69.840932,213.46785 88.450877,206.20731 92.647436,211.12578 97.08988,215.5944 101.77802,219.6082 88.036603,224.999 76.051548,231.45002 65.954371,238.84502 65.494718,239.17337 60.394332,243.09631 60.356778,243.12519 60.394332,243.15407 65.494718,247.07701 65.954371,247.40536 76.062865,254.80869 88.063347,261.26591 101.82413,266.66036 97.13836,270.67529 92.698226,275.14504 88.503745,280.06418 69.876459,272.8064 51.074411,260.49417 32.090956,243.12525 Z M 149.03574,243.12851 C 133.39378,246.60829 119.3261,253.10475 106.86377,262.5857 106.17947,262.33616 105.49291,262.07987 104.80208,261.8112 91.363456,256.62242 79.532731,250.34559 69.595341,243.1253 79.504073,235.92016 91.346686,229.63455 104.81509,224.43445 105.4861,224.17349 106.15323,223.92379 106.8181,223.68096 119.29305,233.1637 133.37638,239.65634 149.03574,243.12851 Z M 84.817733,284.57705 C 81.317632,289.06341 78.0044,293.89044 74.875163,299.04984 67.354783,297.46239 60.290622,295.40802 53.744669,292.89513 58.143245,287.45895 63.230513,282.1498 68.953943,277.01084 74.249249,279.9165 79.537798,282.44128 84.817733,284.57705 Z M 14.425205,303.43073 C 24.770732,287.21837 35.750618,273.76585 47.365034,263.06156 52.861452,267.14873 58.352916,270.8241 63.837679,274.08773 58.32544,279.15068 53.410796,284.36299 49.120039,289.70311 48.760998,290.13929 44.849777,295.24857 44.82095,295.28624 44.864753,295.30437 50.806636,297.77357 51.335655,297.97176 57.726607,300.45301 64.594723,302.51097 71.906502,304.14009 68.789202,309.70908 65.871945,315.63807 63.15625,321.92588 47.73984,318.46378 31.498091,312.30203 14.425205,303.43073 Z M 74.763741,407.85755 C 75.616893,388.64827 78.39863,371.51109 83.10321,356.43581 89.906806,357.22709 96.50028,357.66433 102.882,357.74828 100.64116,364.88608 98.99195,371.85442 97.94658,378.6217 97.85373,379.17892 97.02113,385.55935 97.015,385.60636 97.06201,385.60022 103.44243,384.76762 103.99966,384.67478 110.77482,383.62817 117.7516,381.97637 124.89807,379.73153 124.98326,386.11297 125.42169,392.7061 126.21403,399.5093 111.13189,404.21917 93.985126,407.0039 74.763741,407.85755 Z M 103.54772,379.07375 C 104.63847,372.16932 106.38857,365.03078 108.77428,357.72159 114.81278,357.59029 120.65501,357.13256 126.29533,356.34212 125.50851,361.97491 125.05352,367.8092 124.92369,373.83891 117.61737,376.22417 110.47281,377.97703 103.54772,379.07375 Z M 135.83872,422.67288 C 130.29371,397.57199 129.02972,375.15172 132.04686,355.40474 138.40465,354.2296 144.49584,352.61665 150.31589,350.56357 148.11379,365.15938 147.70796,378.76425 149.06367,391.2062 149.11822,391.7685 149.96535,398.14695 149.9716,398.19396 150.0154,398.17589 155.96297,395.72031 156.47713,395.48638 167.94279,390.43385 179.53525,383.26969 191.0874,374.04977 192.2215,380.11518 193.87234,386.19534 196.0352,392.28744 180.43615,404.79019 160.37236,414.91715 135.83872,422.67288 Z M 194.31392,321.39736 C 189.50653,336.68355 188.0988,352.11476 190.07834,367.64789 189.5201,368.11576 188.95483,368.58217 188.37677,369.04611 177.16379,378.08992 165.81259,385.19721 154.59094,390.19315 153.3055,378.00941 153.78328,364.6106 156.01404,350.34659 156.12355,349.63498 156.24088,348.93238 156.363,348.23513 170.81287,342.17287 183.47721,333.22275 194.31392,321.39736 Z M 198.10043,397.73605 C 200.23571,403.01042 202.75946,408.29333 205.66298,413.5829 200.52803,419.30199 195.21679,424.39258 189.76761,428.80506 187.25905,422.27775 185.20485,415.21747 183.61605,407.69141 188.78001,404.5584 193.61082,401.24072 198.10043,397.73605 Z M 179.23189,468.12453 C 170.36436,451.05891 164.20414,434.82374 160.74114,419.41325 167.02889,416.69676 172.9576,413.77872 178.52637,410.66057 180.15492,417.96582 182.21153,424.82819 184.69087,431.21414 184.88905,431.74315 187.35826,437.68504 187.37644,437.72878 187.41405,437.70001 192.52339,433.78874 192.95957,433.4297 198.30391,429.13562 203.52022,424.21658 208.58694,418.69899 211.85119,424.18314 215.52718,429.67404 219.6148,435.16984 208.90826,446.78983 195.45112,457.77467 179.23189,468.12453 Z M 299.83752,468.08326 C 283.62825,457.73982 270.17793,446.76213 259.47465,435.15024 263.56176,429.65382 267.23713,424.1623 270.50065,418.67754 275.56168,424.18708 280.77192,429.09953 286.10984,433.38848 286.54602,433.74752 291.6553,437.65874 291.69297,437.68757 291.7111,437.64377 294.1803,431.70188 294.3786,431.17287 296.85979,424.78208 298.91759,417.91414 300.5467,410.60264 306.11581,413.7196 312.04485,416.63652 318.33283,419.35188 314.87062,434.7684 308.70882,451.01026 299.83752,468.08326 Z M 273.42371,413.56139 C 276.32926,408.26625 278.85392,402.97787 280.98964,397.69799 285.4743,401.19584 290.29948,404.50688 295.45645,407.6342 293.869,415.15419 291.81475,422.21812 289.30191,428.76374 283.86793,424.36696 278.56075,419.28206 273.42371,413.56139 Z M 343.20536,422.5985 C 318.69491,414.85015 298.64632,404.73479 283.05357,392.24836 285.21475,386.15474 286.86345,380.07317 287.99547,374.0063 299.53483,383.21125 311.11406,390.36516 322.56694,395.41206 323.08116,395.64599 329.02861,398.10157 329.07247,398.11964 329.07867,398.07269 329.92585,391.69418 329.98041,391.13189 331.33758,378.67603 330.92938,365.05465 328.72086,350.44022 334.5408,352.49075 340.63171,354.10117 346.98905,355.27412 350.01722,375.03472 348.7556,397.47391 343.20536,422.5985 Z M 284.73589,321.31978 C 295.57035,333.12619 308.23036,342.06089 322.67217,348.11312 322.79829,348.83053 322.91957,349.55328 323.0324,350.28583 325.25803,364.51837 325.73751,377.90249 324.4533,390.11872 313.25907,385.14006 301.8943,378.02692 290.65666,368.96295 290.09521,368.51236 289.54536,368.05946 289.00261,367.6051 290.97742,352.0601 289.55854,336.61734 284.73589,321.31978 Z M 375.48053,378.96081 C 368.5734,377.86966 361.43188,376.11854 354.11976,373.73137 353.98846,367.69276 353.53067,361.85031 352.74035,356.20987 358.37572,356.99782 364.21272,357.45365 370.24541,357.58393 372.63073,364.89053 374.38376,372.03543 375.48053,378.96081 Z M 404.26434,407.74478 C 385.05128,406.89146 367.91111,404.10882 352.8337,399.40255 353.62509,392.59896 354.06239,386.00554 354.14634,379.62377 361.28713,381.86602 368.25844,383.51613 375.02848,384.56195 375.58565,384.65479 381.96607,385.48734 382.01314,385.49353 382.00695,385.44646 381.17446,379.06604 381.08156,378.50881 380.03484,371.73348 378.3831,364.75653 376.13803,357.60983 382.51964,357.52498 389.11289,357.08695 395.9162,356.29489 400.62607,371.37692 403.41057,388.52356 404.26434,407.74478 Z M 419.08935,346.66913 C 355.25336,360.77099 308.75257,347.18892 279.48811,305.88248 277.63958,305.1202 275.85063,304.15782 274.12586,303.0012 274.26464,305.04301 274.20682,307.04451 273.95374,308.99989 295.17798,355.03951 283.71091,402.146 239.53743,450.42562 195.40816,402.19431 183.91964,355.13376 205.05734,309.13806 204.7912,307.15903 204.72712,305.13174 204.8654,303.06246 203.16867,304.20123 201.40787,305.1479 199.5898,305.90331 170.3303,347.30118 123.80209,360.92245 59.905795,346.80735 79.611273,284.47284 114.62405,250.99307 165.02869,246.30251 166.6131,245.08271 168.34102,244.01471 170.20508,243.09923 168.36743,242.19856 166.66292,241.14773 165.09608,239.95086 114.61251,235.31175 79.550635,201.82771 59.826014,139.43261 123.66201,125.33075 170.16274,138.91288 199.4272,180.21926 201.27573,180.98154 203.06468,181.94392 204.78951,183.10048 204.65072,181.05867 204.70854,179.05712 204.96162,177.10179 183.73739,131.06217 195.20452,83.955738 239.37799,35.676128 283.50726,83.907428 294.99578,130.96804 273.85808,176.96374 274.12422,178.94277 274.1883,180.97 274.05002,183.03923 275.74681,181.90045 277.50761,180.95384 279.32573,180.19837 308.58523,138.8005 355.11339,125.17924 419.00962,139.29439 399.3042,201.6289 364.29137,235.10867 313.88685,239.79923 312.30244,241.01903 310.57446,242.08703 308.71039,243.00251 310.54805,243.90318 312.25255,244.95401 313.8194,246.15089 364.30286,250.78993 399.36473,284.27403 419.08935,346.66913 Z M 415.82904,321.7653 C 413.11256,315.47755 410.1944,309.54884 407.07631,303.98019 414.37824,302.35192 421.23762,300.29598 427.62086,297.81771 428.14988,297.61947 434.09182,295.15027 434.13557,295.13208 434.1068,295.09447 430.19558,289.98519 429.83648,289.54896 425.54251,284.20478 420.6237,278.98864 415.10634,273.92203 420.59026,270.6575 426.08088,266.98129 431.57634,262.8935 443.19638,273.59998 454.18134,287.05724 464.53131,303.27663 447.46896,312.14242 431.23683,318.30197 415.82904,321.7653 Z"
   style="fill:none;stroke:#000000;stroke-width:1;stroke-opacity:1;stroke-miterlimit:4;stroke-dasharray:none" /><path
   inkscape:connector-curvature="0"
   id="path1651"
   d="M 263.29146,106.36897 C 257.82218,92.203548 251.23388,79.883548 243.6581,69.539538 243.32975,69.079888 239.40681,63.979498 239.37793,63.941948 239.34905,63.979498 235.42611,69.079888 235.09776,69.539538 227.52198,79.883548 220.93368,92.203488 215.4644,106.36897 207.58915,126.61861 207.48955,144.84958 215.09089,161.0674 215.79788,160.74856 216.48613,160.50196 217.13366,160.3152 L 217.23574,160.28587 217.33877,160.26025 C 218.32237,160.01663 219.45355,159.84592 220.69232,159.82227 L 220.57639,159.56638 220.51074,159.42652 C 213.15504,144.30942 213.2127,127.61838 220.69192,108.38725 225.8807,94.948628 232.15753,83.117898 239.37782,73.180508 246.58296,83.089238 252.86857,94.931848 258.06867,108.40025 265.54299,127.61843 265.60059,144.30947 258.24518,159.42658 L 258.21151,159.49606 258.07435,159.79897 C 259.3384,159.81766 260.4917,159.98983 261.49231,160.23767 L 261.59534,160.26335 261.69748,160.29263 C 262.3284,160.4746 262.9984,160.71489 263.68631,161.02186 271.26608,144.81541 271.15934,126.59964 263.29146,106.36897 Z"
   style="fill:none;stroke:#000000;stroke-width:1;stroke-opacity:1;stroke-miterlimit:4;stroke-dasharray:none" /><path
   inkscape:connector-curvature="0"
   id="path1653"
   d="M 133.00451,154.06923 C 118.00226,151.72305 104.03868,151.26869 91.292636,152.65756 90.730336,152.71211 84.351886,153.55924 84.304874,153.56549 84.323003,153.60929 86.778524,159.55681 87.012461,160.07102 92.182716,171.80384 99.55801,183.66948 109.09098,195.48872 122.69006,212.43369 138.4288,221.63543 156.27444,223.1614 156.35185,222.38971 156.48242,221.67028 156.6444,221.01616 L 156.67008,220.91307 156.69941,220.81105 C 156.98019,219.83741 157.39795,218.7725 157.9969,217.68784 L 157.71736,217.66025 157.56348,217.64719 C 140.79384,216.45887 126.36779,208.06343 113.45279,191.9706 104.40898,180.75768 97.30169,169.40642 92.305736,158.18477 104.48949,156.89927 117.8883,157.37711 132.15231,159.60787 152.53286,162.74404 167.01656,171.03965 176.43067,184.96815 L 176.47403,185.03205 176.66776,185.30231 C 177.31597,184.21696 178.04171,183.30419 178.75664,182.56156 L 178.8304,182.48515 178.9068,182.4114 C 179.37986,181.95597 179.92301,181.49586 180.53276,181.05361 170.28751,166.38624 154.45874,157.37081 133.00451,154.06923 Z"
   style="fill:none;stroke:#000000;stroke-width:1;stroke-opacity:1;stroke-miterlimit:4;stroke-dasharray:none" /><path
   inkscape:connector-curvature="0"
   id="path1655"
   d="M 109.1707,290.75119 C 99.63774,302.57043 92.262446,314.43601 87.092185,326.16889 86.858248,326.6831 84.402727,332.63067 84.384598,332.67447 84.431611,332.68066 90.810066,333.52785 91.372356,333.58235 104.1184,334.97116 118.08198,334.51686 133.08423,332.17068 154.55856,328.86606 170.39679,319.83677 180.6412,305.14492 180.01157,304.69208 179.45389,304.2193 178.96834,303.75188 L 178.89194,303.67813 178.81818,303.60172 C 178.11536,302.8717 177.40201,301.97751 176.76218,300.91649 L 176.59857,301.14479 176.51029,301.27159 C 167.0964,315.20037 152.61264,323.49598 132.21835,326.63434 117.98582,328.86003 104.6017,329.33951 92.385466,328.05525 97.36413,316.86107 104.47733,305.49625 113.54124,294.25861 126.44752,278.17659 140.87357,269.78115 157.64304,268.59261 L 157.72006,268.58698 158.05101,268.55432 C 157.43517,267.45029 157.00755,266.36539 156.72187,265.37492 L 156.69254,265.27284 156.66692,265.16975 C 156.50905,264.53241 156.38215,263.83195 156.304,263.08279 138.47897,264.62165 122.75706,273.82204 109.1707,290.75119 Z"
   style="fill:none;stroke:#000000;stroke-width:1;stroke-opacity:1;stroke-miterlimit:4;stroke-dasharray:none" /><path
   inkscape:connector-curvature="0"
   id="path1657"
   d="M 215.62385,379.73277 C 221.09313,393.8982 227.68143,406.21819 235.25721,416.5622 235.58556,417.02191 239.5085,422.12224 239.53738,422.15979 239.56626,422.12224 243.48919,417.02191 243.81755,416.5622 251.39333,406.21819 257.98162,393.89825 263.4509,379.73277 271.32616,359.48313 271.42576,341.25221 263.82442,325.03439 263.11743,325.35323 262.42913,325.59984 261.78159,325.78654 L 261.67952,325.81587 261.57648,325.84149 C 260.59288,326.08511 259.4617,326.25582 258.22294,326.27941 L 258.33886,326.5353 258.40451,326.67516 C 265.76021,341.79227 265.70255,358.48331 258.22333,377.71444 253.03455,391.15305 246.75772,402.98378 239.53743,412.92117 232.33229,403.01244 226.04668,391.16983 220.84658,377.70143 213.37226,358.48331 213.31466,341.79221 220.67008,326.67516 L 220.70374,326.60563 220.8409,326.30272 C 219.57685,326.28408 218.42349,326.11191 217.42294,325.86407 L 217.31985,325.83839 217.21783,325.80906 C 216.58691,325.62709 215.91691,325.38673 215.229,325.07983 207.64917,341.28633 207.75592,359.5021 215.62385,379.73277 Z"
   style="fill:none;stroke:#000000;stroke-width:1;stroke-opacity:1;stroke-miterlimit:4;stroke-dasharray:none" /><path
   inkscape:connector-curvature="0"
   id="path1659"
   d="M 322.24523,265.18862 322.2159,265.29064 C 321.93506,266.26428 321.5173,267.32924 320.91835,268.41385 L 321.19795,268.44144 321.35188,268.4545 C 338.12147,269.64282 352.54751,278.03825 365.46252,294.13108 374.50633,305.344 381.61362,316.69526 386.60957,327.91685 374.42582,329.2023 361.02701,328.72451 346.763,326.49375 326.3824,323.35765 311.89869,315.06204 302.48469,301.13348 L 302.44128,301.06957 302.24754,300.79927 C 301.59945,301.88467 300.87359,302.79744 300.15867,303.54007 L 300.08491,303.61647 300.00851,303.69023 C 299.53551,304.1456 298.99236,304.60577 298.38255,305.04802 308.62774,319.7155 324.45651,328.73093 345.91075,332.03251 360.91305,334.37869 374.87658,334.83305 387.62262,333.44418 388.18497,333.38963 394.56336,332.54244 394.61043,332.53625 394.59236,332.49245 392.13672,326.54493 391.90279,326.03072 386.73259,314.2979 379.35735,302.43226 369.82427,290.61302 356.22519,273.66805 340.48651,264.46631 322.64081,262.94034 322.56345,263.71203 322.43289,264.43146 322.27085,265.08558 Z"
   style="fill:none;stroke:#000000;stroke-width:1;stroke-opacity:1;stroke-miterlimit:4;stroke-dasharray:none" /><path
   inkscape:connector-curvature="0"
   id="path1661"
   d="M 369.74455,195.35055 C 379.27752,183.53131 386.65281,171.66573 391.82312,159.93285 392.057,159.41864 394.51263,153.47113 394.53071,153.42727 394.48369,153.42108 388.10513,152.57384 387.54295,152.51933 374.79685,151.13052 360.83327,151.58488 345.83102,153.93106 324.35674,157.23568 308.5184,166.26497 298.27405,180.95682 298.90368,181.40966 299.46136,181.88244 299.94686,182.3498 L 300.02326,182.42356 300.09701,182.49996 C 300.79978,183.22998 301.51325,184.12423 302.15307,185.1852 L 302.31668,184.95689 302.40502,184.8301 C 311.81897,170.90131 326.30256,162.6057 346.6969,159.46734 360.92955,157.24171 374.31366,156.76218 386.52984,158.04644 381.55118,169.24061 374.43798,180.60544 365.37407,191.84302 352.46773,207.92504 338.0418,216.32047 321.27227,217.50902 L 321.19519,217.51465 320.86436,217.54731 C 321.48019,218.65134 321.90781,219.73623 322.19349,220.72671 L 322.22288,220.82873 322.24844,220.93182 C 322.40637,221.56916 322.53328,222.26962 322.61131,223.01884 340.43634,221.48009 356.15825,212.2797 369.74455,195.35055 Z"
   style="fill:none;stroke:#000000;stroke-width:1;stroke-opacity:1;stroke-miterlimit:4;stroke-dasharray:none" /><path
   inkscape:connector-curvature="0"
   id="path1663"
   d="M 283.09102,307.18904 284.84658,307.53152 C 291.16924,308.76427 295.53944,307.10999 298.38255,305.04808 298.99236,304.60582 299.53551,304.14572 300.00851,303.69029 L 300.08491,303.61653 300.15867,303.54013 C 300.87359,302.7975 301.59945,301.88472 302.24754,300.79932 303.93746,297.96967 305.08221,293.92777 303.99985,288.37781 L 303.65989,286.63497 303.53259,286.51268 C 302.70534,283.39971 301.34361,280.43595 299.46924,277.64312 302.8126,277.86659 306.04712,277.56464 309.14426,276.72928 L 309.31435,276.77944 311.00596,276.19829 C 316.38808,274.34847 319.31975,271.30898 320.91841,268.4139 321.51735,267.32924 321.93512,266.26433 322.21596,265.29069 L 322.24529,265.18867 322.27091,265.08564 C 322.43294,264.43152 322.56351,263.71208 322.64087,262.9404 322.99045,259.45421 322.22175,254.86578 318.01635,250.03412 L 316.8505,248.69469 316.67917,248.65246 C 315.78632,247.75601 314.83093,246.92369 313.81934,246.15094 312.25244,244.95412 310.548,243.90323 308.71034,243.00256 310.57435,242.08714 312.30232,241.01908 313.88679,239.79929 314.86206,239.04844 315.78351,238.24061 316.6473,237.37395 L 316.81976,237.33234 317.99411,235.98327 C 322.22299,231.12403 322.97548,226.51218 322.61131,223.01906 322.53322,222.26985 322.40631,221.56944 322.24844,220.93204 L 322.22288,220.82895 322.19349,220.72693 C 321.90781,219.73646 321.48025,218.65157 320.86436,217.54753 319.25878,214.66918 316.33077,211.65683 310.98316,209.81923 L 309.30382,209.24218 309.1343,209.29128 C 306.02111,208.45023 302.76812,208.15436 299.40815,208.38278 301.27672,205.59626 302.64138,202.64319 303.46745,199.5398 L 303.59599,199.41757 303.93842,197.66205 C 305.02759,192.07606 303.86112,188.01738 302.15324,185.18542 301.51342,184.12446 300.79995,183.2302 300.09718,182.50019 L 300.02343,182.42378 299.94702,182.35003 C 299.46147,181.8826 298.90385,181.40989 298.27422,180.95705 295.42988,178.91118 291.07189,177.28275 284.78471,178.50879 L 283.04181,178.84874 282.91963,178.97604 C 281.69798,179.30068 280.50014,179.71057 279.32579,180.1986 277.50767,180.95401 275.74686,181.90068 274.05007,183.03945 274.18835,180.97022 274.12428,178.943 273.85814,176.96396 273.6943,175.74535 273.45456,174.54481 273.13617,173.36449 L 273.18634,173.19434 272.60513,171.50279 C 270.51141,165.4108 266.89363,162.45323 263.68647,161.02202 262.99857,160.71506 262.32851,160.47476 261.69765,160.29279 L 261.59551,160.26352 261.49248,160.23784 C 260.49187,159.99 259.33851,159.81783 258.07452,159.79913 254.77897,159.75043 250.70622,160.77998 246.44096,164.49234 L 245.10153,165.65814 245.0593,165.82958 C 242.77438,168.1051 240.89162,170.77429 239.4094,173.79835 237.93045,170.7869 236.05541,168.12847 233.78084,165.86145 L 233.73924,165.68899 232.39012,164.51464 C 228.09705,160.77846 223.99896,159.75927 220.69243,159.82233 219.4536,159.84592 218.32249,160.01669 217.33888,160.26031 L 217.23585,160.28593 217.13377,160.31526 C 216.48624,160.50201 215.798,160.74862 215.09101,161.06746 211.89713,162.50785 208.30774,165.46778 206.22607,171.52559 L 205.64902,173.20493 205.69817,173.37451 C 205.36818,174.59588 205.12513,175.83949 204.96174,177.10196 204.70866,179.05729 204.65083,181.05884 204.78962,183.10065 203.06479,181.94409 201.27589,180.98165 199.42731,180.21943 198.28938,179.75026 197.1291,179.35614 195.94664,179.04141 L 195.82435,178.91287 194.06884,178.57044 C 187.74618,177.3377 183.37592,178.99198 180.53293,181.05389 179.92317,181.49614 179.38002,181.95625 178.90697,182.41168 L 178.83057,182.48544 178.75681,182.56184 C 178.04188,183.30447 177.31609,184.21724 176.66793,185.30259 174.97801,188.13224 173.83327,192.17419 174.91563,197.7241 L 175.25553,199.467 175.38289,199.58929 C 176.21008,202.7022 177.57187,205.66602 179.44624,208.45884 176.10283,208.23538 172.8683,208.53733 169.77122,209.37269 L 169.60107,209.32252 167.90952,209.90374 C 162.52739,211.75355 159.59567,214.7931 157.99701,217.68812 157.39807,218.77279 156.9803,219.83763 156.69952,220.81133 L 156.67019,220.91335 156.64451,221.01644 C 156.48248,221.67056 156.35191,222.39 156.27455,223.16168 155.92503,226.64787 156.69372,231.2363 160.89907,236.06795 L 162.06487,237.40739 162.23631,237.44962 C 163.12904,238.34612 164.0845,239.17838 165.09608,239.95114 166.66292,241.14796 168.36743,242.19884 170.20508,243.09952 168.34108,244.01494 166.6131,245.083 165.02869,246.30279 164.05336,247.05364 163.13197,247.86141 162.26818,248.72813 L 162.09578,248.76974 160.92142,250.11886 C 156.69254,254.9781 155.94,259.58995 156.30417,263.08307 156.38226,263.83229 156.50922,264.53269 156.66709,265.17004 L 156.69271,265.27313 156.72204,265.3752 C 157.00772,266.36568 157.43534,267.45057 158.05118,268.5546 159.65681,271.4329 162.58477,274.44531 167.93238,276.28291 L 169.61171,276.85995 169.78124,276.8108 C 172.89443,277.65185 176.1473,277.94777 179.50732,277.71935 177.63881,280.50588 176.2741,283.45894 175.44808,286.56228 L 175.31954,286.68457 174.97711,288.44008 C 173.888,294.02608 175.05442,298.08475 176.7623,300.91671 177.40212,301.97773 178.11553,302.87199 178.81829,303.60195 L 178.89205,303.67835 178.96845,303.75211 C 179.45395,304.21953 180.01163,304.6923 180.64131,305.14514 183.48566,307.19101 187.84375,308.81944 194.13077,307.59334 L 195.87361,307.25339 195.9959,307.12609 C 197.21755,306.80139 198.41539,306.39151 199.5898,305.90354 201.40792,305.14813 203.16867,304.20151 204.8654,303.06268 204.72712,305.13197 204.7912,307.1592 205.05734,309.13828 205.22118,310.3569 205.46091,311.55738 205.77931,312.73765 L 205.72914,312.90779 206.31035,314.59934 C 208.40407,320.69133 212.02184,323.6489 215.22906,325.08011 215.91696,325.38707 216.58702,325.62737 217.21789,325.80934 L 217.31991,325.83867 217.423,325.86435 C 218.42361,326.11219 219.57691,326.28436 220.84095,326.303 224.13651,326.3517 228.20926,325.3221 232.47446,321.60979 L 233.81389,320.44399 233.85612,320.27255 C 236.14104,317.99703 238.0238,315.32784 239.50596,312.30372 240.98492,315.31523 242.85996,317.97355 245.13452,320.24063 L 245.17613,320.41308 246.52525,321.58744 C 250.81831,325.32362 254.91646,326.34286 258.22294,326.27975 259.4617,326.25616 260.59282,326.08539 261.57648,325.84183 L 261.67952,325.81621 261.78159,325.78688 C 262.42913,325.60012 263.11743,325.35351 263.82442,325.03473 267.01834,323.59434 270.60768,320.63435 272.6893,314.57654 L 273.26634,312.89721 273.21719,312.72768 C 273.54718,311.50625 273.79024,310.26265 273.95363,309.00023 274.20676,307.04485 274.26453,305.04335 274.12574,303.00154 275.85052,304.15816 277.63947,305.12054 279.48799,305.88282 280.62592,306.35204 281.78621,306.7461 282.96867,307.06084 Z M 298.45191,289.40494 298.49949,289.45054 C 299.33558,293.7382 298.54335,297.13792 296.12172,299.65323 293.60641,302.0748 290.20669,302.86703 285.91915,302.03094 L 285.87348,301.98336 C 281.12155,301.0497 276.74246,298.62942 272.73676,294.62108 272.63029,294.51489 272.52917,294.40831 272.42502,294.30196 272.39624,294.21154 272.36911,294.11729 272.34005,294.02793 L 271.84735,293.23052 C 279.03921,288.58129 285.05699,282.48238 289.59806,275.44676 L 290.45499,275.84786 C 290.55262,275.87973 290.65565,275.90945 290.75463,275.94093 290.86628,276.05015 290.97809,276.15645 291.08957,276.26821 295.09797,280.27397 297.5183,284.65306 298.45191,289.40494 Z M 313.72526,253.69762 313.78922,253.71332 C 316.65704,257.00843 317.67088,260.34885 316.83141,263.73798 315.8638,267.09282 313.31566,269.47875 309.18452,270.89848 L 309.12118,270.88007 C 304.53911,272.44747 299.53647,272.54099 294.06336,271.07256 293.91804,271.03383 293.77723,270.99205 293.63388,270.95208 293.56379,270.88812 293.49307,270.82005 293.42325,270.75721 L 292.57196,270.29908 C 296.39828,262.84913 298.67453,254.58759 299.10817,246.03383 L 300.02129,245.95529 C 300.12167,245.93406 300.22572,245.90839 300.32718,245.88609 300.47852,245.92483 300.62857,245.96103 300.78109,246.00202 306.2551,247.46684 310.54073,250.0491 313.72526,253.69762 Z M 309.0986,215.13739 309.16188,215.11892 C 313.29308,216.5387 315.84122,218.92463 316.80878,222.27947 317.64825,225.66866 316.63441,229.00903 313.76658,232.30408 L 313.70262,232.31984 C 310.51816,235.96824 306.23247,238.5505 300.75829,240.01538 300.60762,240.05597 300.46242,240.08446 300.31277,240.12286 300.22443,240.10349 300.13378,240.08097 300.04623,240.06239 L 299.11059,240.09037 C 298.90408,235.94521 298.2633,231.76081 297.14648,227.59325 296.03186,223.43306 294.49807,219.49548 292.60906,215.80807 L 293.3593,215.2844 C 293.43226,215.21892 293.50591,215.14797 293.5791,215.08126 293.73517,215.03751 293.88229,214.98723 294.04067,214.945 299.514,213.47652 304.51648,213.56998 309.0986,215.13739 Z M 285.81172,184.05661 285.85733,184.00904 C 290.14504,183.17295 293.5447,183.96518 296.06007,186.38675 298.48158,188.90212 299.27387,192.30183 298.43772,196.58943 L 298.39015,196.6351 C 297.4566,201.38697 295.03621,205.76612 291.02781,209.77176 290.92174,209.87823 290.81504,209.97935 290.70874,210.08351 290.61821,210.11228 290.52401,210.13942 290.43466,210.16847 L 289.63719,210.66123 C 284.98807,203.46937 278.8891,197.45154 271.85349,192.91046 L 272.25459,192.05348 C 272.28651,191.95585 272.31618,191.85293 272.34766,191.75395 272.45694,191.6423 272.56324,191.53037 272.67494,191.4189 276.68075,187.41055 281.05979,184.99022 285.81172,184.05661 Z M 250.10434,168.78327 250.12005,168.71925 C 253.41515,165.85137 256.75558,164.83759 260.14471,165.67711 263.49955,166.64462 265.88548,169.19275 267.30526,173.32401 L 267.28679,173.38729 C 268.85414,177.9693 268.94772,182.97195 267.47924,188.44511 267.4405,188.59037 267.39872,188.73124 267.3588,188.87464 267.29479,188.94474 267.22678,189.0154 267.164,189.08527 L 266.70581,189.93645 C 259.25598,186.11013 250.99437,183.83382 242.44062,183.40013 L 242.36202,182.48724 C 242.34079,182.38679 242.31512,182.28275 242.29282,182.18129 242.33162,182.03 242.36776,181.8799 242.40881,181.72749 243.87363,176.25343 246.45589,171.96779 250.10434,168.78327 Z M 211.54417,173.40987 211.52571,173.34658 C 212.94549,169.21533 215.33142,166.66725 218.68626,165.69969 222.07539,164.86022 225.41576,165.87395 228.71086,168.74188 L 228.72657,168.80584 C 232.37503,171.99031 234.95734,176.276 236.42222,181.75012 236.46281,181.90079 236.49124,182.04611 236.52959,182.19565 236.51022,182.28393 236.48775,182.37463 236.46917,182.46218 L 236.4971,183.39759 C 232.35189,183.60411 228.16748,184.24489 223.99986,185.36159 219.83967,186.47632 215.9021,188.01006 212.21468,189.89907 L 211.69112,189.149 C 211.62564,189.07609 211.55476,189.00239 211.48798,188.9292 211.44424,188.77319 211.39396,188.62601 211.35173,188.46769 209.88331,182.99458 209.97677,177.99199 211.54417,173.40987 Z M 180.4634,196.69675 180.41582,196.65114 C 179.57973,192.36354 180.37196,188.96383 182.79353,186.44846 185.3089,184.02683 188.70862,183.2346 192.99622,184.07069 L 193.04188,184.11826 C 197.79375,185.05187 202.17291,187.47226 206.17855,191.48055 206.28501,191.58668 206.38613,191.69326 206.49029,191.79967 206.51906,191.89009 206.5462,191.98429 206.57525,192.07369 L 207.0679,192.87099 C 199.87605,197.52023 193.85821,203.61925 189.31719,210.65487 L 188.46021,210.25377 C 188.36258,210.2219 188.25966,210.19217 188.16068,210.1607 188.04903,210.05147 187.93716,209.94517 187.82562,209.83341 183.81734,205.82777 181.397,201.44868 180.4634,196.69675 Z M 165.19005,232.40413 165.12603,232.38842 C 162.25815,229.09331 161.24443,225.75294 162.0839,222.36376 163.05146,219.00892 165.59954,216.62299 169.73079,215.20326 L 169.79407,215.22167 C 174.37614,213.65421 179.37873,213.56075 184.85195,215.02918 184.99721,215.06791 185.13808,215.10963 185.28143,215.14961 185.35152,215.21357 185.42218,215.28164 185.49205,215.34447 L 186.34329,215.8026 C 182.51709,223.25255 180.24078,231.5141 179.80708,240.06785 L 178.89402,240.14639 C 178.79358,240.16762 178.68953,240.19329 178.58813,240.21565 178.43679,240.17685 178.28674,240.14071 178.13428,240.09966 172.66015,238.6349 168.37452,236.05264 165.19005,232.40413 Z M 169.81665,270.96435 169.75337,270.98276 C 165.62212,269.56304 163.07403,267.17705 162.10648,263.82221 161.26701,260.43308 162.28073,257.09271 165.14867,253.79761 L 165.21268,253.7819 C 168.39715,250.13344 172.68284,247.55118 178.15697,246.08631 178.30763,246.04571 178.45283,246.01722 178.60249,245.97888 178.69077,245.99825 178.78147,246.02077 178.86902,246.03935 L 179.8046,246.01137 C 180.01118,250.15658 180.65195,254.34104 181.76866,258.50861 182.88339,262.66874 184.41707,266.60631 186.30613,270.29373 L 185.55584,270.8174 C 185.48293,270.88288 185.40923,270.95377 185.33604,271.02054 185.17997,271.06429 185.03285,271.11457 184.87453,271.15679 179.40136,272.62522 174.39872,272.53176 169.81665,270.96435 Z M 193.10353,302.04513 193.05798,302.0927 C 188.77038,302.9288 185.37061,302.13656 182.8553,299.71499 180.43373,297.19962 179.64144,293.79991 180.47758,289.51231 L 180.52516,289.46664 C 181.45882,284.71471 183.87916,280.33562 187.8875,276.32992 187.99363,276.22345 188.10032,276.12233 188.20662,276.01818 188.29704,275.9894 188.39124,275.96227 188.48065,275.93321 L 189.27806,275.44051 C 193.92724,282.63242 200.02626,288.6502 207.06188,293.19122 L 206.66072,294.0482 C 206.62885,294.14583 206.59913,294.24875 206.56765,294.34773 206.45843,294.45944 206.35213,294.57125 206.24037,294.68279 202.23456,298.69119 197.85546,301.11146 193.10353,302.04513 Z M 228.81091,317.31847 228.7952,317.38243 C 225.5001,320.25037 222.15967,321.2641 218.77054,320.42463 215.41576,319.45707 213.02977,316.90893 211.61005,312.77773 L 211.62846,312.71445 C 210.06105,308.13244 209.96754,303.1298 211.43596,297.65657 211.4747,297.51131 211.51642,297.37044 211.55639,297.2271 211.62035,297.15695 211.68842,297.08634 211.75125,297.01647 L 212.20939,296.16523 C 219.65933,299.99149 227.92088,302.2678 236.47464,302.7015 L 236.55323,303.6145 C 236.57446,303.715 236.60013,303.81899 236.62243,303.92045 236.58364,304.07174 236.54755,304.22178 236.5065,304.37425 235.04162,309.84832 232.45942,314.13395 228.81091,317.31847 Z M 187.18147,257.0582 C 179.44539,228.18684 196.57892,198.5107 225.45027,190.77463 254.32162,183.03855 283.99782,200.17213 291.73384,229.04349 299.46986,257.91484 282.33628,287.59104 253.46498,295.32711 224.59368,303.06313 194.91754,285.92955 187.18147,257.0582 Z M 267.37108,312.69182 267.38955,312.75516 C 265.96977,316.88635 263.58384,319.43449 260.22899,320.40205 256.83987,321.24152 253.4995,320.22774 250.20439,317.35986 L 250.18863,317.29584 C 246.54017,314.11143 243.95791,309.82574 242.49303,304.35156 242.45244,304.20089 242.42401,304.05563 242.38567,303.90604 242.40503,303.81781 242.4275,303.72705 242.44608,303.6395 L 242.41815,302.70392 C 246.56331,302.49741 250.74777,301.85663 254.91539,300.73992 259.07553,299.62519 263.0131,298.09151 266.70052,296.20245 L 267.22419,296.95268 C 267.28967,297.02559 267.36055,297.09929 267.42732,297.17249 267.47102,297.3285 267.52135,297.47567 267.56358,297.63394 269.032,303.10716 268.93848,308.10975 267.37108,312.69182 Z"
   style="fill:none;stroke:#000000;stroke-width:1;stroke-opacity:1;stroke-miterlimit:4;stroke-dasharray:none" />
</svg>