<?xml version="1.0" encoding="utf-8"?>
<!-- Generator: Adobe Illustrator 24.0.2, SVG Export Plug-In . SVG Version: 6.00 Build 0)  -->
<svg version="1.1"
	 id="Layer_1" xmlns:cc="http://creativecommons.org/ns#" xmlns:dc="http://purl.org/dc/elements/1.1/" xmlns:inkscape="http://www.inkscape.org/namespaces/inkscape" xmlns:rdf="http://www.w3.org/1999/02/22-rdf-syntax-ns#" xmlns:sodipodi="http://sodipodi.sourceforge.net/DTD/sodipodi-0.dtd" xmlns:svg="http://www.w3.org/2000/svg"
	 xmlns="http://www.w3.org/2000/svg" xmlns:xlink="http://www.w3.org/1999/xlink" >
<style type="text/css">
	.st0{fill:none;stroke:#000000;}
</style>
<path class="st0" d="M419.1,346.7c-63.8,14.1-110.3,0.5-139.6-40.8c-1.8-0.8-3.6-1.7-5.4-2.9c0.1,2,0.1,4-0.2,6
	c21.2,46,9.8,93.1-34.4,141.4c-44.1-48.2-55.6-95.3-34.5-141.3c-0.3-2-0.3-4-0.2-6.1c-1.7,1.1-3.5,2.1-5.3,2.8
	c-29.3,41.4-75.8,55-139.7,40.9C79.6,284.5,114.6,251,165,246.3c1.6-1.2,3.3-2.3,5.2-3.2c-1.8-0.9-3.5-2-5.1-3.1
	c-50.5-4.6-85.5-38.1-105.3-100.5c63.8-14.1,110.3-0.5,139.6,40.8c1.8,0.8,3.6,1.7,5.4,2.9c-0.1-2-0.1-4,0.2-6
	c-21.2-46-9.8-93.1,34.4-141.4C283.5,83.9,295,131,273.9,177c0.3,2,0.3,4,0.2,6.1c1.7-1.1,3.5-2.1,5.3-2.8
	c29.3-41.4,75.8-55,139.7-40.9c-19.7,62.3-54.7,95.8-105.1,100.5c-1.6,1.2-3.3,2.3-5.2,3.2c1.8,0.9,3.5,2,5.1,3.1
	C364.3,250.8,399.4,284.3,419.1,346.7z"/>
</svg>
