<svg id="svg" version="1.1" width="820" height="1038" xmlns="http://www.w3.org/2000/svg"><path d="M60.000 519.000 L 60.000 998.000 410.000 998.000 L 760.000 998.000 760.000 519.000 L 760.000 40.000 410.000 40.000 L 60.000 40.000 60.000 519.000 M753.000 203.458 L 753.000 359.916 746.750 357.070 C 743.313 355.504,736.546 352.386,731.713 350.140 C 726.880 347.895,719.936 345.134,716.282 344.005 C 706.658 341.033,653.592 331.000,647.493 331.000 C 641.090 331.000,633.465 333.214,630.600 335.906 C 628.574 337.809,628.117 337.850,623.240 336.563 L 618.039 335.191 615.005 338.648 L 611.970 342.104 605.370 335.405 L 598.769 328.707 600.475 325.131 L 602.180 321.555 599.340 319.261 C 595.223 315.936,577.880 307.592,567.921 304.146 C 556.219 300.096,537.492 296.008,527.372 295.294 L 519.000 294.703 519.000 290.312 C 519.000 287.894,519.899 284.159,521.000 282.000 C 522.895 278.285,523.000 276.106,523.000 240.490 C 523.000 206.734,522.823 202.574,521.268 199.700 C 519.948 197.262,519.370 192.807,518.843 181.000 C 517.267 145.689,515.195 131.079,510.463 121.928 C 509.658 120.372,509.000 117.101,509.000 114.659 C 509.000 110.998,508.341 109.423,505.250 105.694 C 484.346 80.480,436.953 63.917,397.119 67.907 C 362.984 71.325,336.533 82.365,317.750 101.033 C 309.233 109.498,309.000 109.854,309.000 114.415 C 309.000 116.991,308.342 120.372,307.537 121.928 C 302.859 130.976,300.603 146.875,299.157 181.000 C 298.650 192.950,298.099 197.233,296.750 199.700 C 295.170 202.589,295.000 206.582,295.004 240.700 C 295.007 276.713,295.102 278.655,297.004 281.774 C 298.271 283.853,299.000 286.811,299.000 289.876 L 299.000 294.704 291.098 295.313 C 280.048 296.165,264.366 299.492,252.000 303.608 C 240.637 307.390,223.227 315.562,218.660 319.257 L 215.820 321.555 217.555 325.192 L 219.289 328.830 212.687 335.498 L 206.084 342.165 203.062 338.724 L 200.041 335.282 194.828 336.635 C 189.937 337.903,189.480 337.860,187.427 335.932 C 184.543 333.222,176.936 331.000,170.544 331.000 C 164.265 331.000,115.902 340.102,103.563 343.606 C 98.647 345.001,88.566 349.036,81.161 352.572 C 73.756 356.107,67.540 359.000,67.349 359.000 C 67.157 359.000,67.000 288.800,67.000 203.000 L 67.000 47.000 410.000 47.000 L 753.000 47.000 753.000 203.458 M407.000 105.000 C 407.000 119.850,406.663 132.003,406.250 132.006 C 403.384 132.028,385.637 135.172,381.836 136.331 L 377.171 137.753 375.961 129.126 C 375.295 124.382,374.235 117.125,373.604 113.000 L 372.458 105.500 367.979 105.817 C 361.849 106.251,352.948 108.606,346.266 111.561 C 343.200 112.917,340.599 113.908,340.485 113.763 C 340.371 113.618,339.991 109.602,339.640 104.838 L 339.002 96.177 348.251 91.681 C 364.468 83.798,384.927 78.575,401.250 78.150 L 407.000 78.000 407.000 105.000 M438.644 81.082 C 450.962 83.751,463.558 88.146,472.343 92.842 L 479.186 96.500 478.492 105.000 C 478.110 109.675,477.686 113.619,477.551 113.764 C 477.415 113.910,474.874 112.916,471.902 111.557 C 465.559 108.654,456.328 106.227,450.015 105.802 L 445.530 105.500 443.343 121.000 C 442.141 129.525,441.122 136.793,441.078 137.152 C 441.035 137.511,438.863 137.153,436.250 136.357 C 432.384 135.179,414.646 132.029,411.750 132.006 C 411.337 132.003,411.000 119.783,411.000 104.850 L 411.000 77.701 419.951 78.336 C 424.874 78.685,433.286 79.921,438.644 81.082 M333.882 112.268 L 334.000 118.035 326.899 124.734 C 322.994 128.418,318.494 133.328,316.899 135.646 C 314.205 139.562,314.000 140.525,314.000 149.252 C 314.000 155.261,313.412 160.419,312.367 163.572 C 310.335 169.705,308.822 171.588,310.117 166.372 C 310.646 164.243,311.450 157.100,311.903 150.500 C 312.522 141.497,313.404 136.627,315.437 131.000 C 316.928 126.875,318.485 121.050,318.898 118.056 C 319.595 112.999,320.106 112.191,326.074 106.697 L 332.500 100.782 333.132 103.641 C 333.479 105.213,333.817 109.095,333.882 112.268 M495.902 110.541 C 498.266 113.233,499.000 115.021,499.000 118.084 C 499.000 120.293,499.732 123.514,500.626 125.244 C 503.760 131.304,506.000 141.383,506.016 149.497 C 506.024 153.899,506.650 160.128,507.405 163.340 C 509.005 170.138,507.995 169.701,505.633 162.572 C 504.599 159.452,504.000 154.278,504.000 148.472 C 504.000 139.939,503.798 139.021,501.102 135.299 C 497.753 130.676,491.960 124.609,487.161 120.700 L 483.822 117.979 484.529 109.499 L 485.235 101.018 489.020 104.016 C 491.101 105.664,494.198 108.601,495.902 110.541 M367.463 114.250 C 367.738 115.487,370.439 133.968,373.465 155.317 C 377.342 182.678,379.488 195.020,380.733 197.136 C 383.814 202.371,388.312 204.351,398.194 204.824 L 407.000 205.245 407.000 237.122 L 407.000 269.000 402.051 269.000 C 393.618 269.000,374.589 266.117,362.572 263.019 C 348.931 259.501,333.910 253.888,332.850 251.912 C 332.198 250.698,320.946 146.343,320.986 141.885 C 321.008 139.319,328.951 130.220,335.500 125.257 C 342.410 120.020,351.106 115.707,359.000 113.600 C 366.416 111.620,366.885 111.656,367.463 114.250 M459.356 113.586 C 469.988 116.331,480.598 122.598,489.232 131.232 C 495.941 137.941,497.000 139.474,497.000 142.474 C 497.000 146.707,486.155 250.005,485.531 251.718 C 484.712 253.967,469.190 259.705,453.500 263.560 C 442.458 266.272,423.631 269.000,415.949 269.000 L 411.000 269.000 411.000 237.122 L 411.000 205.245 419.814 204.823 C 426.200 204.518,429.574 203.855,432.064 202.416 C 438.521 198.685,439.467 195.186,445.011 154.500 C 450.779 112.173,450.808 112.000,452.185 112.000 C 452.750 112.000,455.976 112.714,459.356 113.586 M336.655 131.829 C 334.375 134.349,334.584 137.534,337.189 139.961 C 339.954 142.538,342.450 142.550,345.000 140.000 C 347.397 137.603,347.593 133.736,345.429 131.571 C 343.307 129.450,338.685 129.585,336.655 131.829 M472.655 131.829 C 471.745 132.835,471.000 134.635,471.000 135.829 C 471.000 138.550,474.354 142.000,477.000 142.000 C 479.714 142.000,483.000 138.525,483.000 135.655 C 483.000 130.686,476.024 128.106,472.655 131.829 M343.500 135.486 C 343.500 137.627,340.409 138.809,338.861 137.261 C 338.351 136.751,338.231 135.560,338.594 134.614 C 339.521 132.201,343.500 132.908,343.500 135.486 M479.500 135.486 C 479.500 137.627,476.409 138.809,474.861 137.261 C 474.351 136.751,474.231 135.560,474.594 134.614 C 475.521 132.201,479.500 132.908,479.500 135.486 M431.430 139.003 C 435.792 140.116,439.594 141.261,439.881 141.547 C 441.002 142.669,433.563 191.189,431.834 194.033 C 429.420 198.002,424.875 198.989,409.000 198.989 C 393.826 198.989,388.686 197.976,386.437 194.544 C 385.195 192.649,378.000 148.167,378.000 142.386 C 378.000 141.327,387.810 138.617,399.000 136.586 C 404.388 135.608,423.795 137.054,431.430 139.003 M325.949 251.781 C 325.985 254.060,324.641 257.089,321.552 261.694 C 316.371 269.416,316.360 269.360,324.691 277.559 C 328.178 280.991,333.143 284.459,337.891 286.780 L 345.500 290.500 364.264 290.828 L 383.028 291.156 384.933 286.901 L 386.838 282.646 409.053 282.573 L 431.269 282.500 433.370 286.825 L 435.471 291.150 454.043 290.825 L 472.614 290.500 480.452 286.624 C 485.833 283.963,490.281 280.756,494.645 276.392 C 498.140 272.897,501.000 269.573,501.000 269.007 C 501.000 268.440,498.936 264.872,496.413 261.078 L 491.826 254.180 495.969 213.840 C 498.248 191.653,500.361 172.375,500.664 171.000 C 501.200 168.571,501.239 168.561,502.029 170.625 C 502.498 171.849,501.729 186.292,500.217 204.677 L 497.592 236.604 501.433 257.892 C 507.136 289.491,506.112 295.151,491.261 314.149 C 475.486 334.328,467.000 353.188,467.000 368.067 C 467.000 372.574,466.427 373.821,460.814 381.517 C 457.412 386.183,454.360 390.000,454.030 390.000 C 453.701 390.000,450.987 387.525,448.000 384.500 L 442.568 379.000 409.063 379.000 L 375.558 379.000 369.805 384.693 C 366.641 387.824,363.876 390.186,363.660 389.943 C 363.444 389.699,360.508 385.708,357.134 381.073 C 351.352 373.129,351.000 372.324,351.000 367.033 C 351.000 352.273,340.731 330.683,323.636 309.500 C 312.222 295.357,311.186 287.479,316.797 257.500 L 320.728 236.500 318.037 205.000 C 316.167 183.117,315.642 172.737,316.316 171.000 C 317.051 169.105,318.328 178.177,321.592 208.500 C 323.961 230.500,325.921 249.977,325.949 251.781 M312.037 207.006 C 314.272 235.596,314.290 236.807,312.630 246.006 C 307.464 274.639,306.700 278.133,305.884 276.846 C 305.414 276.106,305.024 259.912,305.015 240.859 C 305.001 208.464,305.128 205.936,306.978 201.859 C 308.537 198.424,308.961 195.292,308.978 187.083 C 308.990 181.354,309.165 176.854,309.366 177.083 C 309.567 177.313,310.769 190.778,312.037 207.006 M511.270 202.372 C 512.803 205.803,513.000 210.211,513.000 241.063 C 513.000 263.197,512.636 276.107,512.000 276.500 C 511.450 276.840,511.000 276.849,511.000 276.521 C 511.000 276.192,509.393 267.053,507.429 256.212 L 503.858 236.500 506.179 208.000 C 508.357 181.259,508.532 180.086,509.020 189.000 C 509.337 194.809,510.212 200.005,511.270 202.372 M340.147 262.504 C 359.608 270.200,379.330 273.994,403.500 274.691 C 430.786 275.478,454.589 271.595,478.078 262.523 C 483.095 260.585,487.342 259.000,487.515 259.000 C 487.687 259.000,489.190 261.213,490.855 263.919 L 493.881 268.837 488.914 273.484 C 486.182 276.039,480.921 279.563,477.223 281.315 C 470.705 284.403,470.027 284.510,454.960 284.834 L 439.421 285.168 437.049 280.105 C 434.886 275.487,434.451 275.104,432.089 275.741 C 428.594 276.684,390.201 276.671,386.774 275.726 C 384.246 275.029,383.858 275.346,381.463 280.074 L 378.878 285.174 363.189 284.837 C 348.754 284.527,347.060 284.292,342.000 281.901 C 336.055 279.093,326.221 271.740,325.341 269.446 C 324.875 268.233,329.779 259.007,330.892 259.002 C 331.108 259.001,335.273 260.577,340.147 262.504 M313.706 306.250 C 314.272 307.488,316.430 310.525,318.504 313.000 C 325.150 320.934,334.184 335.116,338.530 344.439 C 343.216 354.490,344.995 360.735,345.011 367.193 C 345.021 371.450,339.967 393.967,339.000 393.968 C 338.725 393.968,334.983 387.458,330.685 379.500 L 322.870 365.030 317.434 335.765 C 314.444 319.669,311.787 305.938,311.530 305.250 C 310.701 303.031,312.644 303.924,313.706 306.250 M506.489 305.250 C 506.243 305.938,503.614 319.637,500.647 335.694 L 495.253 364.887 487.406 379.390 C 483.090 387.366,479.341 393.674,479.075 393.409 C 478.047 392.380,473.039 371.315,473.034 368.000 C 473.016 354.106,481.707 336.572,501.500 310.569 C 506.698 303.740,507.236 303.166,506.489 305.250 M303.308 316.000 L 305.198 326.500 302.103 341.000 C 297.812 361.096,296.876 367.970,296.873 379.412 L 296.870 389.323 288.935 381.435 C 283.196 375.730,281.001 372.849,281.003 371.023 C 281.009 365.662,293.776 308.789,295.657 305.747 C 295.949 305.273,297.365 305.024,298.803 305.193 C 301.296 305.486,301.506 305.989,303.308 316.000 M527.441 323.865 C 529.992 334.240,533.386 349.428,534.982 357.615 L 537.885 372.500 529.607 380.828 L 521.330 389.156 521.266 378.828 C 521.200 368.070,519.654 357.402,515.361 338.082 L 512.824 326.664 514.545 317.082 C 516.732 304.901,516.687 305.000,520.008 305.000 L 522.802 305.000 527.441 323.865 M288.590 307.627 C 287.753 309.808,282.584 330.611,280.506 340.161 L 278.839 347.822 270.169 349.387 C 265.401 350.248,259.607 351.242,257.293 351.597 L 253.087 352.242 253.644 348.371 C 254.256 344.118,259.175 321.776,260.952 315.178 C 262.186 310.597,261.560 310.909,275.500 307.919 C 286.326 305.597,289.395 305.529,288.590 307.627 M540.500 307.530 C 555.185 310.338,555.824 310.620,556.913 314.780 C 561.690 333.038,565.385 350.948,564.548 351.786 C 564.132 352.201,539.822 348.258,539.449 347.715 C 539.368 347.597,537.603 340.075,535.527 331.000 C 533.451 321.925,531.177 312.587,530.474 310.250 C 528.954 305.196,528.680 305.270,540.500 307.530 M257.000 313.288 C 257.000 313.446,255.423 320.309,253.496 328.538 C 249.282 346.529,248.030 357.023,250.106 356.953 C 250.873 356.928,257.350 355.860,264.500 354.582 C 271.650 353.303,277.611 352.347,277.746 352.458 C 277.945 352.621,274.928 369.092,274.595 369.663 C 274.350 370.082,223.614 378.948,223.293 378.627 C 223.092 378.425,223.865 368.864,225.011 357.380 C 227.086 336.590,227.108 336.488,230.088 333.728 C 232.899 331.125,232.988 330.820,231.541 328.755 C 230.693 327.545,230.000 325.951,230.000 325.212 C 230.000 323.861,241.213 318.235,250.500 314.927 C 255.550 313.128,257.000 312.763,257.000 313.288 M567.093 314.880 C 573.774 317.204,583.749 321.614,586.729 323.562 C 588.946 325.011,588.948 325.036,587.078 328.112 L 585.197 331.205 588.122 333.852 C 591.017 336.474,591.067 336.707,593.141 357.299 C 594.293 368.738,595.041 378.292,594.803 378.530 C 594.265 379.068,544.863 370.193,544.074 369.416 C 543.374 368.727,540.161 353.172,540.623 352.710 C 540.804 352.530,546.700 353.400,553.726 354.644 C 560.752 355.888,567.063 356.928,567.750 356.953 C 570.233 357.046,568.562 344.218,563.434 323.819 C 560.922 313.828,560.762 313.000,561.343 313.000 C 561.532 313.000,564.120 313.846,567.093 314.880 M179.387 342.957 C 181.341 343.700,181.980 344.507,181.599 345.751 C 179.336 353.147,159.034 424.091,158.562 426.250 L 157.962 429.000 145.336 429.000 L 132.711 429.000 133.299 422.750 C 133.622 419.313,135.023 413.148,136.411 409.051 C 137.800 404.954,138.788 401.454,138.607 401.273 C 138.426 401.092,123.723 398.968,105.934 396.552 C 79.385 392.947,73.358 391.842,72.291 390.383 C 70.824 388.378,71.324 385.993,74.209 381.229 C 78.304 374.465,80.235 373.756,115.500 366.062 C 133.650 362.102,150.179 358.428,152.230 357.897 C 155.261 357.114,157.116 355.416,162.115 348.849 L 168.269 340.765 172.454 341.339 C 174.756 341.654,177.875 342.382,179.387 342.957 M654.751 347.158 C 657.363 350.544,660.178 354.171,661.007 355.217 C 662.174 356.689,670.743 358.937,699.007 365.185 C 738.024 373.811,739.843 374.463,744.106 381.366 C 747.001 386.054,747.495 388.934,745.710 390.719 C 744.592 391.837,735.191 393.474,711.949 396.599 C 694.232 398.981,679.592 401.075,679.415 401.252 C 679.238 401.429,680.232 404.707,681.624 408.537 C 683.015 412.366,684.409 418.538,684.722 422.250 L 685.290 429.000 672.728 429.000 L 660.166 429.000 659.089 424.250 C 658.497 421.637,653.087 402.635,647.067 382.023 C 641.047 361.410,636.285 344.381,636.486 344.181 C 637.438 343.229,644.803 341.083,647.251 341.044 C 649.463 341.009,650.932 342.206,654.751 347.158 M157.985 343.750 C 157.977 344.163,156.514 346.163,154.735 348.196 L 151.500 351.892 116.500 359.526 C 78.443 367.827,74.966 369.072,70.345 376.055 C 68.909 378.225,67.569 380.000,67.367 380.000 C 67.165 380.000,67.000 377.853,67.000 375.229 L 67.000 370.457 82.250 363.322 C 101.041 354.529,106.878 352.735,134.000 347.414 C 158.001 342.706,158.006 342.705,157.985 343.750 M218.231 363.490 L 216.500 380.480 212.000 382.681 C 209.525 383.891,207.105 384.909,206.621 384.941 C 205.568 385.012,206.332 378.374,209.098 363.435 C 210.993 353.204,211.462 352.000,215.323 347.474 C 220.512 341.393,220.493 341.290,218.231 363.490 M608.891 363.377 C 610.023 369.494,611.244 376.862,611.604 379.750 L 612.258 385.000 607.499 383.250 C 604.782 382.251,602.400 380.642,601.948 379.500 C 601.513 378.400,600.641 371.425,600.010 364.000 C 599.380 356.575,598.643 348.700,598.371 346.500 L 597.878 342.500 602.355 347.377 C 606.631 352.036,606.923 352.750,608.891 363.377 M684.038 347.505 C 712.006 352.874,715.694 354.014,736.750 363.797 L 753.000 371.347 753.000 377.879 L 753.000 384.412 749.750 379.038 C 743.497 368.699,743.584 368.735,702.815 359.772 L 666.500 351.788 663.288 348.144 C 660.483 344.963,659.339 343.000,660.288 343.000 C 660.447 343.000,671.134 345.027,684.038 347.505 M199.076 350.000 C 200.715 352.290,200.750 353.045,199.494 359.000 C 193.096 389.336,191.542 423.752,195.000 458.500 C 196.095 469.500,196.993 479.256,196.995 480.179 C 197.000 481.725,182.457 491.798,181.550 490.878 C 181.345 490.670,178.355 479.925,174.906 467.000 C 165.880 433.183,165.677 436.392,179.904 388.000 C 186.684 364.940,191.873 348.987,192.842 348.221 C 195.045 346.481,196.947 347.024,199.076 350.000 M625.237 348.250 C 626.217 349.006,631.316 364.700,638.151 388.000 C 652.398 436.558,652.229 433.824,643.067 467.500 C 639.625 480.150,636.653 490.661,636.463 490.858 C 635.761 491.585,621.000 481.749,621.000 480.555 C 621.000 479.873,621.951 469.908,623.113 458.408 C 626.364 426.250,624.722 389.751,618.629 358.698 C 617.384 352.355,617.424 351.731,619.220 349.448 C 621.375 346.707,622.857 346.412,625.237 348.250 M311.437 360.250 C 311.819 363.137,312.987 367.435,314.032 369.800 C 317.341 377.290,332.019 403.067,339.694 414.867 L 347.087 426.234 341.902 438.867 C 339.050 445.815,336.442 451.811,336.108 452.191 C 335.176 453.251,308.804 411.980,307.869 408.000 C 305.850 399.398,307.678 355.000,310.051 355.000 C 310.431 355.000,311.055 357.363,311.437 360.250 M509.994 364.750 C 510.707 370.449,511.064 381.978,510.853 392.500 L 510.493 410.500 496.996 431.000 C 489.573 442.275,483.119 451.725,482.654 452.000 C 482.190 452.275,479.370 446.546,476.388 439.270 L 470.966 426.040 476.833 417.270 C 491.717 395.021,505.515 368.733,506.517 360.714 C 506.909 357.571,507.578 355.000,508.003 355.000 C 508.427 355.000,509.324 359.387,509.994 364.750 M128.655 375.829 C 124.890 379.989,128.147 387.000,133.845 387.000 C 135.410 387.000,137.435 386.177,138.345 385.171 C 140.542 382.744,140.450 377.717,138.171 375.655 C 135.744 373.458,130.717 373.550,128.655 375.829 M679.655 375.829 C 677.458 378.256,677.550 383.283,679.829 385.345 C 682.256 387.542,687.283 387.450,689.345 385.171 C 691.542 382.744,691.450 377.717,689.171 375.655 C 686.744 373.458,681.717 373.550,679.655 375.829 M136.989 378.980 C 138.332 381.489,136.013 384.278,132.944 383.845 C 129.902 383.416,128.969 379.227,131.502 377.375 C 133.502 375.912,135.690 376.552,136.989 378.980 M273.552 377.916 C 273.288 378.343,272.370 385.372,271.513 393.536 C 270.656 401.700,269.833 408.500,269.685 408.648 C 269.537 408.797,260.435 411.480,249.458 414.613 C 238.481 417.745,228.999 420.801,228.387 421.404 C 227.732 422.050,226.790 430.714,226.094 442.500 C 225.445 453.500,224.648 464.654,224.323 467.287 L 223.733 472.074 215.131 471.787 L 206.529 471.500 204.714 453.000 C 202.949 435.003,202.914 409.199,204.640 396.612 L 205.261 392.078 212.469 389.077 C 217.566 386.955,227.413 384.651,246.089 381.209 C 260.615 378.532,272.845 376.521,273.266 376.740 C 273.688 376.959,273.816 377.488,273.552 377.916 M573.000 381.421 C 601.779 386.581,611.926 389.913,613.200 394.623 C 615.040 401.422,615.088 436.262,613.282 454.000 L 611.500 471.500 602.883 471.787 L 594.267 472.074 593.659 466.287 C 593.324 463.104,592.531 451.950,591.895 441.500 C 591.217 430.370,590.275 422.036,589.619 421.381 C 589.004 420.765,579.448 417.673,568.384 414.510 L 548.268 408.758 547.128 397.629 C 546.501 391.508,545.707 384.164,545.362 381.309 C 544.790 376.574,544.901 376.158,546.618 376.573 C 547.653 376.823,559.525 379.004,573.000 381.421 M687.500 380.500 C 687.500 383.164,687.165 383.500,684.514 383.500 C 682.428 383.500,681.422 382.955,681.179 381.692 C 680.554 378.448,681.821 376.847,684.744 377.183 C 687.069 377.450,687.500 377.969,687.500 380.500 M297.415 418.874 C 298.463 453.427,298.518 457.002,298.000 456.972 C 297.725 456.957,292.678 446.856,286.784 434.528 L 276.068 412.111 276.987 401.652 C 277.492 395.899,278.215 388.859,278.593 386.007 L 279.281 380.822 288.035 389.535 L 296.789 398.248 297.415 418.874 M368.116 395.385 C 370.777 392.765,373.121 390.818,373.326 391.060 C 373.531 391.302,374.619 395.231,375.745 399.790 L 377.791 408.080 370.920 411.540 C 367.142 413.443,363.821 415.000,363.540 415.000 C 362.339 415.000,346.085 391.926,346.473 390.773 C 346.709 390.073,347.407 387.529,348.024 385.119 L 349.148 380.738 356.213 390.444 L 363.279 400.150 368.116 395.385 M470.896 387.319 L 472.064 392.138 463.870 403.319 C 459.363 409.469,455.516 414.696,455.320 414.935 C 454.562 415.860,441.000 408.535,441.000 407.201 C 441.000 405.841,443.563 395.007,444.579 392.073 C 444.929 391.062,446.486 392.039,449.923 395.424 L 454.773 400.201 460.293 392.736 C 463.329 388.631,466.407 384.322,467.132 383.161 C 468.776 380.528,469.423 381.243,470.896 387.319 M541.001 399.017 L 542.152 411.945 531.443 434.223 C 520.678 456.618,518.408 460.712,519.368 456.000 C 519.648 454.625,520.149 441.125,520.480 426.000 L 521.082 398.500 529.783 389.738 C 540.012 379.435,539.199 378.762,541.001 399.017 M440.798 385.854 C 441.835 386.512,441.558 388.825,439.421 397.354 L 436.745 408.031 409.123 407.766 L 381.500 407.500 378.889 397.500 C 377.118 390.719,376.594 387.098,377.261 386.250 C 378.010 385.298,385.547 385.004,408.872 385.015 C 425.718 385.024,440.084 385.401,440.798 385.854 M752.633 433.700 C 752.408 433.925,746.212 433.433,738.862 432.606 C 731.513 431.780,720.775 430.843,715.000 430.523 C 709.225 430.204,701.710 429.697,698.300 429.397 L 692.100 428.852 691.502 424.176 C 691.173 421.604,690.231 416.632,689.409 413.126 C 688.588 409.620,688.063 406.604,688.243 406.424 C 688.423 406.244,700.479 404.497,715.035 402.541 C 745.318 398.474,748.296 397.810,750.729 394.583 C 752.445 392.306,752.508 392.870,752.771 412.762 C 752.920 424.054,752.858 433.476,752.633 433.700 M100.242 402.080 C 115.784 404.204,128.981 405.954,129.568 405.971 C 130.260 405.990,130.015 408.380,128.876 412.750 C 127.908 416.462,127.089 421.599,127.058 424.165 L 127.000 428.829 119.750 429.393 C 115.763 429.703,108.000 430.220,102.500 430.543 C 91.961 431.163,77.053 432.590,70.750 433.584 L 67.000 434.176 67.000 414.565 L 67.000 394.954 69.492 396.586 C 71.165 397.683,81.263 399.487,100.242 402.080 M354.000 409.000 C 358.515 415.050,362.397 420.000,362.627 420.000 C 362.856 420.000,366.584 418.220,370.910 416.045 L 378.777 412.090 380.339 418.294 C 381.199 421.706,381.587 424.759,381.201 425.077 C 380.179 425.921,365.206 432.000,364.149 432.000 C 362.549 432.000,344.000 402.917,344.000 400.409 C 344.000 399.084,344.403 398.000,344.895 398.000 C 345.388 398.000,349.485 402.950,354.000 409.000 M474.262 399.892 C 474.588 401.141,471.552 406.661,465.322 416.142 C 460.133 424.039,455.351 430.871,454.694 431.324 C 453.981 431.816,450.028 430.690,444.874 428.526 L 436.248 424.904 437.774 418.702 C 438.614 415.291,439.387 412.383,439.493 412.240 C 439.599 412.097,443.183 413.780,447.458 415.978 C 451.732 418.177,455.585 419.757,456.018 419.489 C 456.452 419.221,460.322 414.276,464.617 408.501 C 468.913 402.725,472.729 398.000,473.097 398.000 C 473.465 398.000,473.989 398.851,474.262 399.892 M434.082 418.750 C 432.032 426.900,430.899 427.640,417.967 429.272 C 408.292 430.493,394.045 429.353,388.745 426.932 C 386.037 425.696,385.062 423.560,383.389 415.196 L 382.750 412.000 409.265 412.000 L 435.780 412.000 434.082 418.750 M270.946 425.097 C 272.152 427.901,272.945 430.388,272.708 430.626 C 272.470 430.863,265.801 433.221,257.888 435.866 L 243.500 440.674 243.231 462.774 L 242.962 484.874 229.731 490.029 C 222.454 492.864,215.089 495.773,213.365 496.493 L 210.230 497.802 212.589 511.151 C 213.887 518.493,214.960 524.766,214.974 525.090 C 214.989 525.415,212.546 526.269,209.547 526.989 L 204.094 528.297 203.797 533.302 L 203.500 538.307 195.624 519.014 C 189.376 503.709,188.032 499.556,189.124 498.924 C 189.881 498.486,194.325 495.690,199.000 492.711 C 205.732 488.421,207.566 486.744,207.816 484.647 L 208.133 482.000 221.066 482.000 L 234.000 482.000 234.091 477.750 C 234.141 475.413,234.928 463.434,235.841 451.131 L 237.500 428.761 252.500 424.444 C 260.750 422.070,267.782 420.099,268.127 420.064 C 268.472 420.029,269.740 422.294,270.946 425.097 M565.500 424.418 L 580.500 428.785 581.646 443.643 C 582.277 451.814,583.114 463.788,583.507 470.250 L 584.221 482.000 597.044 482.000 L 609.867 482.000 610.184 484.662 C 610.440 486.819,612.343 488.476,620.232 493.412 C 625.585 496.760,629.973 499.827,629.982 500.227 C 629.997 500.819,618.625 529.138,615.416 536.500 C 614.744 538.043,614.472 537.341,614.226 533.427 L 613.908 528.354 608.956 527.085 C 606.233 526.387,603.827 525.520,603.610 525.158 C 603.392 524.796,604.223 518.522,605.455 511.215 C 606.687 503.908,607.371 497.730,606.975 497.485 C 606.579 497.240,599.803 494.532,591.917 491.468 C 584.032 488.404,577.064 485.468,576.432 484.944 C 575.647 484.292,575.221 477.285,575.083 462.746 C 574.972 451.061,574.571 441.219,574.191 440.875 C 573.811 440.531,567.065 438.123,559.200 435.525 C 551.335 432.927,545.035 430.506,545.200 430.146 C 545.365 429.785,546.349 427.355,547.386 424.745 C 548.423 422.135,549.548 420.012,549.886 420.026 C 550.224 420.040,557.250 422.017,565.500 424.418 M321.039 442.000 C 327.235 451.625,332.978 460.285,333.802 461.244 C 334.625 462.203,347.582 469.291,362.594 476.994 L 389.888 491.000 409.098 491.000 L 428.308 491.000 456.027 476.808 L 483.747 462.616 496.623 442.764 L 509.500 422.911 509.786 431.870 L 510.073 440.829 498.924 458.165 C 492.793 467.699,487.039 476.248,486.138 477.163 C 485.237 478.077,472.035 484.715,456.799 491.913 L 429.098 505.000 409.038 505.000 L 388.978 505.000 361.239 491.902 C 345.983 484.697,332.767 478.060,331.872 477.152 C 330.977 476.243,325.239 467.676,319.122 458.114 L 308.000 440.728 308.000 431.664 C 308.000 426.343,308.366 422.992,308.887 423.550 C 309.375 424.072,314.843 432.375,321.039 442.000 M389.500 430.906 C 401.716 434.733,417.931 434.534,430.728 430.400 L 435.956 428.711 443.478 431.990 C 447.615 433.794,451.000 435.576,451.000 435.951 C 451.000 437.453,442.673 441.174,436.283 442.528 C 428.107 444.261,392.408 444.541,383.434 442.944 C 377.684 441.920,367.000 437.390,367.000 435.976 C 367.000 435.249,380.754 429.108,382.500 429.056 C 383.050 429.039,386.200 429.872,389.500 430.906 M352.441 434.521 C 355.198 439.639,363.266 446.787,369.280 449.438 C 376.989 452.837,383.814 454.000,396.049 454.000 L 407.000 454.000 407.000 469.500 L 407.000 485.000 399.334 485.000 L 391.667 485.000 366.084 471.897 C 352.013 464.691,340.112 458.430,339.637 457.985 C 338.823 457.220,348.910 431.017,350.023 431.005 C 350.310 431.002,351.398 432.584,352.441 434.521 M473.929 444.141 C 479.192 456.866,479.298 457.309,477.429 458.699 C 476.368 459.487,464.381 465.727,450.792 472.566 L 426.084 485.000 418.542 485.000 L 411.000 485.000 411.000 469.500 L 411.000 454.000 421.951 454.000 C 434.186 454.000,441.011 452.837,448.720 449.438 C 454.734 446.787,462.802 439.639,465.559 434.521 C 466.602 432.584,467.690 431.004,467.977 431.008 C 468.265 431.013,470.943 436.922,473.929 444.141 M293.050 471.000 C 301.945 489.425,309.455 504.725,309.738 505.000 C 310.022 505.275,309.949 495.600,309.576 483.500 L 308.899 461.500 317.199 473.939 L 325.500 486.378 352.500 499.141 C 367.350 506.161,380.226 512.342,381.114 512.876 C 382.581 513.758,382.516 514.642,380.404 522.550 C 379.126 527.337,377.907 531.426,377.696 531.637 C 376.410 532.924,344.269 524.563,330.927 519.472 C 309.137 511.157,284.943 496.570,272.038 483.969 L 264.629 476.735 258.565 478.973 C 255.229 480.204,251.713 481.441,250.750 481.722 C 249.128 482.196,249.000 480.886,249.000 463.860 L 249.000 445.487 262.250 440.956 C 269.538 438.464,275.810 436.667,276.188 436.963 C 276.567 437.258,284.155 452.575,293.050 471.000 M569.000 464.009 L 569.000 482.813 562.250 479.934 C 554.205 476.501,552.417 476.353,551.000 479.001 C 549.415 481.962,535.686 493.404,526.251 499.627 C 510.106 510.276,488.584 519.994,468.872 525.536 C 459.688 528.118,440.882 532.236,440.452 531.760 C 439.682 530.906,435.925 515.653,436.185 514.435 C 436.362 513.607,448.798 507.129,464.500 499.687 L 492.500 486.416 500.843 473.958 L 509.186 461.500 508.605 483.500 L 508.023 505.500 512.770 496.000 C 515.381 490.775,523.000 475.172,529.701 461.327 L 541.886 436.154 555.443 440.679 L 569.000 445.204 569.000 464.009 M158.505 443.250 C 158.880 445.587,162.524 460.073,166.603 475.440 C 175.935 510.594,175.511 511.957,161.600 491.500 C 152.838 478.616,135.004 441.329,136.763 439.571 C 137.077 439.257,141.944 439.000,147.579 439.000 L 157.824 439.000 158.505 443.250 M682.000 439.560 C 682.000 439.868,679.940 445.149,677.423 451.296 C 671.404 465.991,664.009 480.278,656.924 490.896 C 642.611 512.347,642.058 510.807,651.459 475.686 C 655.544 460.426,659.188 445.928,659.557 443.470 L 660.227 439.000 671.114 439.000 C 677.101 439.000,682.000 439.252,682.000 439.560 M133.940 450.750 C 142.341 471.555,153.981 493.035,162.615 503.668 C 164.477 505.961,166.000 508.044,166.000 508.297 C 166.000 508.550,164.678 509.305,163.062 509.974 C 160.281 511.126,159.600 510.842,150.312 504.654 C 137.420 496.064,122.514 484.039,106.500 469.309 C 94.123 457.924,80.297 443.355,81.117 442.562 C 81.740 441.959,107.639 440.312,119.049 440.150 L 129.599 440.000 133.940 450.750 M719.980 441.129 C 729.066 441.750,736.677 442.415,736.893 442.606 C 737.710 443.327,723.091 458.721,711.034 469.837 C 696.101 483.602,681.090 495.678,667.740 504.665 C 658.434 510.929,657.841 511.177,654.990 509.996 C 651.477 508.541,651.331 507.915,653.956 505.540 C 660.568 499.556,676.979 469.903,684.552 450.256 L 688.500 440.012 695.980 440.006 C 700.095 440.003,710.895 440.508,719.980 441.129 M79.847 457.132 C 85.981 463.530,91.000 469.084,91.000 469.475 C 91.000 469.865,90.100 471.329,89.000 472.727 C 87.653 474.439,87.000 476.784,87.000 479.904 L 87.000 484.539 124.000 522.717 C 144.350 543.716,161.000 561.309,161.000 561.813 C 161.000 562.318,160.067 563.916,158.927 565.365 L 156.855 568.000 117.819 568.000 L 78.783 568.000 79.491 565.250 C 83.549 549.479,87.767 521.051,86.382 518.809 C 86.107 518.364,81.634 518.000,76.441 518.000 L 67.000 518.000 67.000 481.417 C 67.000 461.296,67.381 444.983,67.847 445.167 C 68.312 445.350,73.712 450.735,79.847 457.132 M753.000 481.500 L 753.000 518.000 742.349 518.000 L 731.699 518.000 732.324 528.250 C 732.848 536.829,734.521 546.630,738.641 565.250 L 739.250 568.000 700.193 568.000 L 661.136 568.000 658.949 564.929 L 656.762 561.857 659.631 558.769 C 661.209 557.070,677.913 539.720,696.750 520.212 L 731.000 484.745 730.996 480.122 C 730.994 477.242,730.227 474.244,728.961 472.168 L 726.929 468.836 738.215 456.985 C 744.422 450.467,750.288 445.104,751.250 445.067 C 752.886 445.004,753.000 447.379,753.000 481.500 M108.452 484.958 C 122.522 497.369,141.664 511.929,151.928 518.026 C 158.151 521.724,158.912 522.522,159.494 525.963 C 160.262 530.512,165.191 541.244,168.515 545.605 L 170.881 548.711 168.365 552.413 C 166.981 554.450,165.489 555.978,165.049 555.808 C 164.609 555.639,148.218 538.928,128.624 518.674 C 106.063 495.352,93.000 481.119,93.000 479.859 C 93.000 477.840,94.672 474.000,95.550 474.000 C 95.814 474.000,101.620 478.931,108.452 484.958 M723.800 475.200 C 724.460 475.860,725.000 477.682,725.000 479.248 C 725.000 481.638,719.272 488.010,689.449 518.798 C 669.895 538.984,653.489 555.500,652.990 555.500 C 652.491 555.500,650.987 554.016,649.649 552.202 L 647.216 548.904 651.072 543.129 C 653.193 539.953,656.141 533.675,657.623 529.177 C 659.105 524.680,660.645 521.000,661.046 521.000 C 661.447 521.000,666.888 517.587,673.137 513.415 C 685.543 505.133,703.500 490.900,714.500 480.630 C 718.350 477.036,721.748 474.074,722.050 474.048 C 722.352 474.021,723.140 474.540,723.800 475.200 M267.798 494.098 C 270.865 496.902,275.991 501.040,279.188 503.295 C 282.385 505.549,285.000 507.699,285.000 508.071 C 285.000 508.444,281.288 510.964,276.750 513.673 L 268.500 518.596 261.318 516.407 L 254.135 514.217 240.055 518.263 C 232.311 520.488,225.691 522.024,225.344 521.678 C 224.510 520.844,221.770 504.896,222.360 504.307 C 222.967 503.699,260.253 489.112,261.360 489.049 C 261.833 489.022,264.730 491.294,267.798 494.098 M576.039 496.387 C 586.526 500.449,595.330 503.996,595.602 504.269 C 596.218 504.885,593.522 520.811,592.656 521.678 C 592.309 522.024,585.692 520.488,577.951 518.264 L 563.877 514.220 557.689 516.103 C 554.285 517.138,550.927 517.988,550.227 517.992 C 548.687 518.002,532.988 508.986,533.028 508.115 C 533.043 507.777,536.399 505.064,540.486 502.086 C 544.572 499.108,549.600 494.945,551.660 492.836 C 553.720 490.726,555.758 489.000,556.189 489.000 C 556.619 489.000,565.552 492.324,576.039 496.387 M194.738 533.080 C 199.818 545.411,203.981 556.218,203.988 557.095 C 204.001 558.793,200.326 562.660,199.492 561.826 C 199.220 561.553,194.547 550.568,189.108 537.415 L 179.219 513.500 181.359 511.774 C 182.537 510.824,183.950 510.185,184.500 510.354 C 185.050 510.522,189.657 520.749,194.738 533.080 M636.883 511.750 L 638.988 513.500 629.143 537.268 C 623.728 550.340,619.009 561.324,618.655 561.678 C 617.820 562.513,614.000 559.059,614.000 557.468 C 614.000 556.796,617.872 546.854,622.604 535.373 C 627.336 523.893,631.600 513.487,632.079 512.250 C 633.128 509.542,634.106 509.441,636.883 511.750 M305.517 519.136 C 333.048 533.207,362.809 541.510,398.250 545.007 C 430.457 548.185,487.356 534.481,519.219 515.872 L 526.100 511.853 533.771 516.373 C 538.638 519.242,540.904 521.088,539.970 521.427 C 539.162 521.720,527.250 525.363,513.500 529.521 C 481.136 539.310,479.000 540.016,479.000 540.920 C 479.000 541.624,453.143 597.093,452.470 597.833 C 452.303 598.017,449.096 596.314,445.342 594.051 C 441.589 591.787,434.914 588.739,430.509 587.277 C 423.427 584.927,420.938 584.619,409.000 584.619 C 397.057 584.619,394.575 584.926,387.479 587.281 C 383.067 588.745,376.542 591.716,372.979 593.885 C 369.416 596.053,366.199 597.529,365.831 597.164 C 364.918 596.258,339.000 541.970,339.000 540.964 C 339.000 540.013,337.050 539.366,304.500 529.521 C 290.750 525.363,278.843 521.722,278.039 521.430 C 277.114 521.095,279.318 519.271,284.039 516.462 C 288.143 514.021,291.733 512.131,292.017 512.262 C 292.302 512.393,298.377 515.486,305.517 519.136 M406.788 525.391 L 407.076 535.281 398.309 534.570 C 393.488 534.179,388.353 533.621,386.899 533.330 L 384.255 532.801 386.168 525.151 C 387.220 520.943,388.263 516.963,388.487 516.307 C 388.767 515.484,391.622 515.174,397.697 515.307 L 406.500 515.500 406.788 525.391 M431.715 523.951 C 432.934 528.599,433.793 532.540,433.625 532.709 C 433.116 533.218,418.766 534.936,414.750 534.969 L 411.000 535.000 411.000 525.667 C 411.000 520.533,411.268 516.065,411.597 515.737 C 411.925 515.409,416.087 515.221,420.847 515.320 L 429.500 515.500 431.715 523.951 M183.932 541.028 C 189.551 554.793,193.992 566.524,193.802 567.095 C 193.611 567.667,188.740 572.393,182.977 577.598 L 172.500 587.060 169.240 580.062 L 165.981 573.064 175.388 560.282 L 184.795 547.500 180.000 542.500 C 174.747 537.022,172.033 532.239,169.686 524.322 C 168.191 519.281,168.208 519.104,170.325 517.624 C 171.521 516.789,172.774 516.081,173.108 516.052 C 173.442 516.024,178.313 527.263,183.932 541.028 M647.461 517.567 C 649.831 519.119,649.839 519.181,648.315 524.317 C 645.941 532.318,642.607 538.160,637.702 542.914 L 633.219 547.259 642.591 560.073 L 651.964 572.888 649.138 579.510 C 647.584 583.153,646.053 586.216,645.736 586.317 C 645.419 586.418,640.369 582.251,634.513 577.059 C 627.173 570.549,624.004 567.095,624.307 565.934 C 624.914 563.611,644.431 516.037,644.785 516.016 C 644.942 516.007,646.146 516.705,647.461 517.567 M80.000 527.651 C 80.000 531.872,76.509 551.793,74.243 560.500 C 72.597 566.828,72.162 567.530,69.711 567.816 L 67.000 568.133 67.000 546.733 C 67.000 534.963,67.188 525.146,67.417 524.917 C 67.646 524.688,70.571 524.500,73.917 524.500 L 80.000 524.500 80.000 527.651 M752.770 546.397 L 753.039 568.000 749.597 568.000 C 746.593 568.000,746.024 567.587,745.121 564.750 C 742.307 555.908,737.413 527.974,738.281 525.709 C 738.589 524.905,741.047 524.549,745.622 524.647 L 752.500 524.795 752.770 546.397 M250.020 531.250 C 256.314 555.630,263.235 577.631,270.637 596.794 C 273.037 603.006,275.000 608.218,275.000 608.376 C 275.000 608.534,272.767 610.110,270.038 611.879 C 264.578 615.417,258.625 621.789,256.279 626.607 C 254.783 629.679,254.879 629.947,264.706 650.107 C 274.506 670.212,289.735 698.247,300.494 715.990 C 303.522 720.984,306.000 725.400,306.000 725.803 C 306.000 726.206,303.271 729.453,299.936 733.018 C 296.600 736.583,291.788 742.313,289.243 745.750 C 286.697 749.188,284.364 751.978,284.057 751.950 C 283.751 751.923,273.001 736.518,260.169 717.718 L 236.838 683.536 240.086 676.823 C 241.872 673.131,243.333 669.521,243.333 668.802 C 243.333 668.082,233.808 647.160,222.167 622.309 C 210.525 597.457,201.000 576.674,201.000 576.124 C 201.000 575.574,203.925 572.509,207.499 569.312 L 213.999 563.500 213.999 549.949 L 214.000 536.398 229.750 531.817 C 238.412 529.298,246.270 527.184,247.211 527.119 C 248.424 527.035,249.243 528.239,250.020 531.250 M282.735 533.608 L 301.970 539.442 304.974 548.399 C 306.626 553.325,307.870 557.451,307.739 557.567 C 307.306 557.950,267.532 548.038,266.039 547.176 C 265.236 546.712,263.583 542.770,262.366 538.416 C 259.564 528.395,259.465 526.613,261.750 527.270 C 262.712 527.547,272.156 530.399,282.735 533.608 M557.924 528.750 C 557.752 532.696,553.317 546.391,551.961 547.163 C 550.548 547.966,510.667 558.077,510.432 557.691 C 510.369 557.586,511.595 553.394,513.158 548.375 C 515.701 540.208,516.288 539.185,518.750 538.628 C 520.262 538.286,529.375 535.557,539.000 532.565 C 548.625 529.572,556.837 527.096,557.250 527.062 C 557.663 527.028,557.966 527.788,557.924 528.750 M587.250 531.660 L 604.000 536.377 604.000 549.777 L 604.000 563.176 610.907 569.838 L 617.813 576.500 596.066 622.500 L 574.318 668.500 577.721 676.070 L 581.124 683.640 557.812 717.780 C 544.990 736.557,534.275 751.920,534.000 751.920 C 533.725 751.920,531.503 749.243,529.062 745.971 C 526.621 742.700,521.748 736.980,518.232 733.261 L 511.839 726.500 513.739 723.000 C 514.783 721.075,519.826 712.300,524.944 703.500 C 544.477 669.914,563.586 631.437,562.615 627.646 C 561.812 624.510,553.547 615.463,548.161 611.825 C 545.597 610.093,543.379 608.590,543.231 608.486 C 543.083 608.381,544.937 603.167,547.351 596.898 C 555.600 575.474,561.029 558.174,568.109 530.750 C 568.641 528.688,569.397 526.987,569.789 526.971 C 570.180 526.956,578.038 529.066,587.250 531.660 M321.686 545.514 L 330.730 548.228 340.906 569.896 L 351.082 591.564 346.479 596.532 C 336.356 607.457,327.220 624.518,325.401 635.893 C 325.040 638.152,324.464 639.987,324.122 639.972 C 323.254 639.932,317.610 630.460,312.570 620.582 C 303.186 602.191,287.228 560.000,289.657 560.000 C 290.424 560.000,296.681 561.410,303.561 563.132 C 310.440 564.855,316.265 566.068,316.505 565.828 C 316.745 565.588,315.387 560.466,313.487 554.446 C 309.581 542.068,309.496 541.593,311.321 542.293 C 312.048 542.572,316.712 544.021,321.686 545.514 M504.941 553.676 C 502.784 560.098,501.224 565.557,501.475 565.808 C 501.726 566.059,507.560 564.855,514.439 563.132 C 521.319 561.410,527.573 560.000,528.336 560.000 C 530.065 560.000,521.922 583.554,513.012 604.328 C 506.478 619.564,495.058 640.526,493.977 639.269 C 493.613 638.846,492.525 635.482,491.559 631.794 C 488.339 619.504,481.086 606.685,471.624 596.561 L 467.008 591.622 477.272 570.061 L 487.536 548.500 497.018 545.341 C 502.233 543.603,507.032 542.141,507.682 542.091 C 508.418 542.034,507.384 546.404,504.941 553.676 M284.680 562.000 C 285.372 563.925,288.267 572.025,291.114 580.000 C 300.736 606.951,314.494 635.815,321.183 643.080 C 323.326 645.408,323.505 646.492,323.568 657.548 C 323.613 665.385,324.206 671.566,325.290 675.500 C 326.199 678.800,327.231 682.625,327.582 684.000 C 329.243 690.510,308.465 654.913,297.520 632.500 C 286.849 610.647,270.905 570.259,267.652 556.838 L 267.006 554.176 275.215 556.338 C 282.977 558.382,283.492 558.690,284.680 562.000 M547.919 564.621 C 540.820 586.838,528.702 616.657,518.529 636.942 C 508.843 656.256,488.678 690.087,490.480 684.000 C 493.122 675.078,494.969 663.291,494.983 655.260 L 495.000 646.019 499.631 639.260 C 508.208 626.741,522.596 594.371,531.974 566.500 L 534.665 558.500 542.583 556.390 C 546.937 555.229,550.629 554.383,550.788 554.510 C 550.946 554.638,549.655 559.187,547.919 564.621 M81.000 578.775 C 81.000 583.648,71.042 616.686,68.008 621.879 C 67.391 622.934,67.050 615.562,67.030 600.750 L 67.000 578.000 74.000 578.000 C 77.850 578.000,81.000 578.349,81.000 578.775 M117.945 582.250 C 117.916 584.587,117.285 590.325,116.544 595.000 L 115.197 603.500 117.634 605.732 C 120.946 608.767,129.751 611.173,136.193 610.804 L 141.500 610.500 147.712 598.000 L 153.924 585.500 153.956 592.500 C 154.057 614.697,145.276 642.860,131.764 663.673 C 127.784 669.804,125.947 671.436,113.731 679.685 C 98.906 689.696,96.086 690.888,85.283 691.710 C 79.272 692.167,77.141 691.884,72.533 690.013 L 67.000 687.768 67.000 663.602 L 67.000 639.436 71.510 629.468 C 77.020 617.288,83.240 598.504,85.654 586.750 L 87.451 578.000 102.725 578.000 L 118.000 578.000 117.945 582.250 M148.911 580.826 C 148.369 582.381,145.580 588.343,142.713 594.076 C 136.807 605.886,136.407 606.132,127.384 603.509 C 121.837 601.897,121.781 601.843,122.417 598.689 C 122.770 596.935,123.309 592.125,123.614 588.000 C 123.919 583.875,124.341 579.938,124.553 579.250 C 124.834 578.337,128.305 578.000,137.417 578.000 L 149.896 578.000 148.911 580.826 M694.393 586.250 C 694.767 590.788,695.333 596.155,695.652 598.177 L 696.232 601.854 690.935 603.427 C 681.822 606.133,681.522 605.995,676.988 596.976 C 674.769 592.563,671.864 586.488,670.532 583.476 L 668.110 578.000 680.911 578.000 L 693.712 578.000 694.393 586.250 M733.785 591.584 C 737.381 606.443,742.459 620.796,748.885 634.259 L 753.038 642.961 752.769 665.073 L 752.500 687.184 746.580 689.592 C 733.533 694.899,722.201 692.080,702.826 678.706 C 691.901 671.165,689.608 669.095,686.199 663.698 C 673.048 642.875,665.521 619.670,664.400 596.500 L 663.819 584.500 670.424 597.881 L 677.029 611.261 684.437 610.786 C 689.797 610.442,693.412 609.544,697.512 607.538 C 702.926 604.889,703.152 604.626,702.592 601.633 C 701.635 596.521,700.064 583.712,700.031 580.750 L 700.000 578.000 715.250 578.005 L 730.500 578.009 733.785 591.584 M752.960 602.750 C 752.923 625.881,752.817 627.309,751.340 624.583 C 747.542 617.568,740.804 596.076,737.440 580.250 C 736.975 578.064,737.190 578.000,744.981 578.000 L 753.000 578.000 752.960 602.750 M216.581 624.976 L 237.029 668.408 235.265 672.700 C 234.294 675.060,233.177 676.881,232.783 676.746 C 232.388 676.611,221.571 661.200,208.744 642.500 C 195.918 623.800,183.505 606.025,181.162 603.000 L 176.900 597.500 185.658 589.236 C 190.475 584.691,194.802 581.101,195.274 581.258 C 195.746 581.415,205.334 601.088,216.581 624.976 M632.000 588.681 C 636.675 592.890,640.610 596.596,640.745 596.917 C 640.880 597.237,639.102 599.975,636.792 603.000 C 634.483 606.025,622.281 623.575,609.677 642.000 C 597.073 660.425,586.377 675.915,585.908 676.422 C 585.415 676.955,584.241 675.523,583.121 673.022 L 581.187 668.701 584.468 661.601 C 600.184 627.591,622.396 581.003,622.889 581.015 C 623.225 581.023,627.325 584.472,632.000 588.681 M407.000 602.830 L 407.000 610.542 400.839 611.713 C 377.069 616.231,360.717 639.422,364.879 662.712 C 366.611 672.400,369.991 679.090,376.727 686.159 C 383.322 693.079,391.373 697.591,400.411 699.431 L 406.500 700.670 406.792 708.956 L 407.085 717.241 401.690 716.567 C 381.525 714.048,363.244 701.099,353.833 682.669 C 348.442 672.111,346.533 653.848,349.504 641.246 C 354.096 621.770,369.594 604.560,388.538 597.902 C 394.198 595.913,404.812 594.018,406.250 594.741 C 406.663 594.948,407.000 598.589,407.000 602.830 M423.500 596.201 C 439.916 599.701,456.129 612.661,463.818 628.431 C 468.154 637.324,470.000 645.463,470.000 655.684 C 470.000 666.241,468.204 673.978,463.544 683.500 C 455.090 700.774,436.067 714.204,416.750 716.536 L 411.000 717.230 411.000 708.755 L 411.000 700.279 416.179 699.665 C 423.893 698.752,434.715 693.193,440.784 687.027 C 457.825 669.715,458.231 643.010,441.722 625.361 C 434.792 617.954,424.546 612.313,416.250 611.338 L 411.000 610.721 411.000 602.424 L 411.000 594.126 414.750 594.630 C 416.813 594.908,420.750 595.615,423.500 596.201 M355.498 599.996 L 358.030 604.992 353.496 610.557 C 341.506 625.278,335.735 645.238,338.054 663.960 C 340.088 680.379,345.771 692.351,357.396 704.709 C 365.518 713.343,375.407 719.785,386.500 723.669 C 393.844 726.240,395.689 726.470,409.000 726.470 C 422.311 726.470,424.156 726.240,431.500 723.669 C 454.591 715.585,473.027 695.572,478.638 672.500 C 480.905 663.179,480.858 647.642,478.536 638.500 C 476.159 629.143,470.905 618.522,465.070 611.281 L 460.289 605.349 462.966 600.068 L 465.642 594.786 469.965 599.643 C 480.650 611.648,487.815 626.264,490.465 641.461 C 492.394 652.519,492.397 658.463,490.480 669.452 C 484.687 702.672,459.781 728.971,427.000 736.481 C 417.302 738.703,399.136 738.463,389.410 735.984 C 344.858 724.630,318.006 680.435,328.662 636.000 C 330.455 628.521,336.428 615.137,340.788 608.827 C 343.851 604.393,351.854 595.000,352.568 595.000 C 352.787 595.000,354.106 597.248,355.498 599.996 M656.535 617.375 C 660.187 635.615,668.833 656.300,679.305 671.850 C 682.398 676.442,685.224 681.167,685.585 682.350 C 687.052 687.155,699.283 710.089,704.868 718.504 C 709.944 726.153,711.454 729.568,714.956 741.311 L 719.075 755.122 716.386 758.311 C 713.207 762.080,711.000 767.000,711.000 770.315 C 711.000 771.623,717.223 787.783,724.828 806.226 C 734.650 830.044,740.734 843.301,745.828 851.984 L 753.000 864.210 753.000 927.605 L 753.000 991.000 690.696 991.000 L 628.393 991.000 620.044 970.808 C 609.598 945.541,603.661 935.298,597.842 932.503 L 593.670 930.500 593.899 922.000 C 594.101 914.506,594.419 913.195,596.588 910.920 C 598.832 908.567,599.300 906.346,601.908 885.710 L 604.768 863.080 609.889 857.336 C 616.438 849.988,622.769 837.687,627.818 822.500 C 633.347 805.870,636.441 789.410,647.181 719.500 C 651.278 692.831,651.482 690.454,651.469 669.500 C 651.454 646.097,650.590 639.160,645.502 621.604 L 643.068 613.206 648.034 604.943 C 650.765 600.399,653.058 596.190,653.130 595.590 C 653.201 594.991,653.642 597.875,654.109 602.000 C 654.576 606.125,655.668 613.044,656.535 617.375 M166.000 597.166 C 166.000 597.807,168.083 601.674,170.629 605.759 L 175.258 613.186 172.613 621.843 C 167.606 638.229,166.562 646.654,166.587 670.500 C 166.609 692.286,166.665 692.860,172.362 729.437 C 180.215 779.854,184.353 802.558,187.994 815.204 C 193.618 834.740,200.409 848.790,208.667 857.975 L 213.395 863.233 216.241 885.863 C 219.021 907.979,219.154 908.564,222.088 911.591 C 224.977 914.571,225.079 914.985,224.795 922.584 L 224.500 930.480 220.136 932.544 C 216.406 934.309,215.024 935.916,210.636 943.593 C 207.811 948.535,201.923 961.223,197.552 971.789 L 189.604 991.000 128.302 991.000 L 67.000 991.000 67.000 925.889 L 67.000 860.778 71.879 852.639 C 78.771 841.143,78.664 841.376,93.550 805.399 C 100.947 787.519,107.000 771.775,107.000 770.413 C 107.000 767.006,104.824 762.118,101.613 758.310 L 98.923 755.120 103.081 741.310 C 106.621 729.555,108.134 726.161,113.252 718.500 C 116.559 713.550,122.960 702.075,127.476 693.000 C 131.993 683.925,137.727 673.350,140.218 669.500 C 153.278 649.320,164.000 617.906,164.000 599.824 C 164.000 597.721,164.450 596.000,165.000 596.000 C 165.550 596.000,166.000 596.525,166.000 597.166 M551.080 622.690 C 553.786 625.545,556.000 628.608,556.000 629.497 C 556.000 633.329,531.893 679.732,515.309 707.823 C 507.001 721.897,506.815 722.119,504.677 720.577 C 503.479 719.714,499.027 716.690,494.781 713.858 C 490.189 710.794,487.337 708.261,487.739 707.604 C 488.111 706.997,490.923 702.900,493.988 698.500 C 508.292 677.964,525.065 648.407,535.095 626.064 L 540.444 614.149 543.303 615.825 C 544.875 616.746,548.375 619.836,551.080 622.690 M281.665 623.250 C 293.916 650.565,315.104 687.433,328.154 704.144 C 329.719 706.148,331.000 708.022,331.000 708.308 C 331.000 708.594,328.637 710.270,325.750 712.032 C 322.863 713.793,318.624 716.757,316.332 718.617 C 314.039 720.478,311.946 722.000,311.679 722.000 C 309.305 722.000,262.000 633.966,262.000 629.547 C 262.000 626.820,274.296 615.000,277.132 615.000 C 277.590 615.000,279.630 618.712,281.665 623.250 M117.098 622.396 C 114.210 625.470,114.626 629.652,118.073 632.214 C 121.454 634.726,125.568 633.736,127.532 629.939 C 131.171 622.901,122.508 616.637,117.098 622.396 M692.695 621.111 C 687.973 623.858,688.851 630.867,694.193 633.080 C 696.733 634.132,697.489 634.027,699.814 632.299 C 706.706 627.176,700.104 616.801,692.695 621.111 M418.614 622.478 C 443.465 629.858,451.761 661.437,433.596 679.508 C 425.873 687.191,420.446 689.434,409.500 689.470 C 401.692 689.496,399.705 689.128,394.500 686.693 C 374.898 677.521,368.526 652.464,381.356 635.000 C 389.712 623.625,405.081 618.459,418.614 622.478 M124.961 624.928 C 126.268 627.370,125.380 629.745,122.860 630.545 C 119.124 631.730,116.397 627.003,119.200 624.200 C 121.000 622.400,123.798 622.753,124.961 624.928 M698.800 624.200 C 701.603 627.003,698.876 631.730,695.140 630.545 C 692.620 629.745,691.732 627.370,693.039 624.928 C 694.202 622.753,697.000 622.400,698.800 624.200 M211.167 664.250 C 226.287 686.388,238.965 705.027,239.339 705.671 C 239.745 706.368,236.035 710.816,230.164 716.671 C 224.274 722.544,218.676 729.259,216.253 733.356 L 212.198 740.213 197.273 720.356 C 175.233 691.032,177.165 694.907,176.397 678.490 C 175.993 669.846,176.195 660.296,176.928 653.500 C 178.175 641.923,181.868 624.000,183.006 624.000 C 183.374 624.000,196.046 642.112,211.167 664.250 M637.353 630.750 C 641.032 647.166,641.432 651.085,641.466 671.000 C 641.497 689.772,641.331 691.777,639.500 694.789 C 636.818 699.199,606.635 739.842,606.000 739.897 C 605.725 739.921,603.926 737.141,602.003 733.720 C 599.902 729.983,594.400 723.353,588.217 717.109 L 577.927 706.718 581.713 701.037 C 596.693 678.566,634.512 624.000,635.107 624.000 C 635.510 624.000,636.520 627.038,637.353 630.750 M113.322 698.250 C 110.823 702.788,106.785 709.513,104.349 713.195 C 100.187 719.485,99.641 719.931,95.307 720.581 C 90.502 721.302,85.620 720.461,73.847 716.885 L 67.000 714.805 67.000 706.903 C 67.000 702.556,67.247 699.000,67.550 699.000 C 67.852 699.000,69.539 699.756,71.300 700.680 C 76.019 703.158,88.657 702.938,97.535 700.224 C 101.404 699.041,107.254 696.292,110.535 694.114 C 113.816 691.937,116.807 690.120,117.183 690.078 C 117.558 690.035,115.821 693.712,113.322 698.250 M707.175 694.035 C 715.701 699.545,725.422 702.389,735.500 702.320 C 740.606 702.285,744.845 701.675,747.218 700.633 C 752.994 698.096,753.113 698.226,752.792 706.725 L 752.500 714.450 741.500 717.672 C 723.327 722.994,719.748 722.411,713.604 713.124 C 708.968 706.116,699.859 690.000,700.534 690.000 C 700.753 690.000,703.742 691.816,707.175 694.035 M194.296 723.250 C 202.154 733.837,208.878 742.979,209.237 743.565 C 209.596 744.151,208.556 748.497,206.927 753.224 C 205.298 757.951,203.421 765.238,202.756 769.417 C 202.091 773.596,201.243 776.900,200.871 776.758 C 199.782 776.342,188.948 761.993,187.951 759.646 C 187.450 758.466,185.462 746.700,183.534 733.500 C 181.607 720.300,179.809 708.263,179.540 706.750 C 179.270 705.237,179.265 704.000,179.529 704.000 C 179.792 704.000,186.437 712.663,194.296 723.250 M634.803 732.033 L 630.708 759.500 623.604 768.972 C 616.904 777.905,616.484 778.275,616.226 775.472 C 615.696 769.726,612.748 757.433,610.392 751.146 C 609.082 747.651,608.322 744.276,608.703 743.646 C 610.537 740.607,638.323 703.990,638.591 704.258 C 638.761 704.427,637.056 716.926,634.803 732.033 M349.054 717.584 C 354.535 723.284,369.070 732.496,378.040 735.955 C 382.574 737.704,390.945 739.874,396.642 740.777 L 407.000 742.421 407.000 768.710 L 407.000 795.000 365.798 795.000 L 324.595 795.000 321.313 798.182 C 319.507 799.932,317.843 801.169,317.615 800.932 C 315.980 799.230,293.000 759.908,293.000 758.812 C 293.000 756.654,305.251 741.865,312.748 734.974 C 322.153 726.328,340.708 714.106,344.554 714.023 C 345.133 714.010,347.158 715.613,349.054 717.584 M482.000 718.101 C 495.858 725.626,508.934 736.931,519.645 750.649 L 526.029 758.824 513.869 779.162 C 507.181 790.348,501.326 799.927,500.857 800.448 C 500.341 801.021,498.699 800.131,496.704 798.198 L 493.405 795.000 452.202 795.000 L 411.000 795.000 411.000 768.572 L 411.000 742.144 416.750 741.501 C 426.822 740.375,438.258 737.139,446.504 733.084 C 454.569 729.117,465.441 721.476,469.924 716.624 C 471.258 715.181,472.833 714.006,473.424 714.014 C 474.016 714.022,477.875 715.861,482.000 718.101 M254.731 727.848 L 262.866 739.695 256.868 745.598 C 242.157 760.074,231.594 779.227,226.123 801.344 L 224.430 808.188 217.645 799.355 L 210.860 790.521 211.548 782.011 C 212.895 765.348,218.243 749.135,226.644 736.245 C 230.062 731.001,244.352 716.000,245.930 716.000 C 246.296 716.000,250.256 721.331,254.731 727.848 M576.755 719.750 C 593.507 733.430,604.459 756.542,606.574 782.674 L 607.207 790.500 600.476 799.385 L 593.744 808.270 591.431 799.385 C 585.881 778.065,575.632 759.866,561.151 745.617 L 555.172 739.733 563.297 727.867 C 567.765 721.340,571.588 716.000,571.792 716.000 C 571.996 716.000,574.230 717.688,576.755 719.750 M91.750 724.983 C 97.108 725.000,98.391 726.209,95.800 728.800 C 93.924 730.676,83.306 730.089,75.000 727.650 C 67.881 725.560,67.484 725.289,67.194 722.317 L 66.887 719.186 76.694 722.076 C 82.087 723.665,88.862 724.973,91.750 724.983 M753.000 721.864 C 753.000 724.620,752.653 724.825,743.710 727.364 C 732.265 730.611,723.549 730.894,722.035 728.066 C 720.316 724.853,720.781 724.489,726.249 724.769 C 729.846 724.953,734.492 724.117,741.000 722.115 C 753.035 718.412,753.000 718.413,753.000 721.864 M753.000 731.439 C 753.000 733.628,752.138 734.142,744.605 736.439 C 734.836 739.419,725.549 739.874,724.607 737.418 C 723.438 734.372,724.048 734.000,730.250 733.981 C 734.049 733.970,739.442 733.021,744.000 731.562 C 753.436 728.543,753.000 728.549,753.000 731.439 M75.500 732.000 C 78.926 733.179,83.917 734.000,87.657 734.000 C 93.949 734.000,94.564 734.367,93.393 737.418 C 92.497 739.754,83.524 739.461,74.479 736.800 C 67.980 734.888,67.000 734.298,67.000 732.300 C 67.000 729.487,68.084 729.449,75.500 732.000 M74.000 741.000 C 77.575 742.092,83.025 742.988,86.111 742.992 L 91.722 743.000 90.613 747.155 C 89.757 750.364,88.366 752.160,84.502 755.045 C 79.433 758.829,69.925 764.000,68.033 764.000 C 67.377 764.000,67.000 759.435,67.000 751.500 C 67.000 744.625,67.112 739.003,67.250 739.008 C 67.388 739.012,70.425 739.908,74.000 741.000 M753.000 751.500 C 753.000 765.888,753.175 765.691,744.105 761.469 C 734.816 757.145,729.361 752.508,727.647 747.478 L 726.121 743.000 731.811 742.986 C 734.940 742.979,740.200 742.120,743.500 741.078 C 753.614 737.883,753.000 737.209,753.000 751.500 M276.882 760.039 C 280.942 766.067,284.573 771.000,284.951 771.000 C 285.328 771.000,286.306 769.588,287.123 767.863 L 288.609 764.725 292.878 771.911 L 297.147 779.097 294.337 781.298 C 282.162 790.837,267.461 805.778,251.585 824.750 C 247.788 829.288,244.345 833.000,243.935 833.000 C 243.525 833.000,240.930 829.953,238.170 826.229 L 233.150 819.457 234.561 811.323 C 237.287 795.617,243.444 780.149,252.209 766.986 C 256.798 760.095,266.778 748.987,268.334 749.039 C 268.975 749.060,272.822 754.010,276.882 760.039 M556.498 755.250 C 568.367 768.344,577.038 784.685,581.414 802.206 C 585.655 819.190,585.687 818.710,579.841 826.324 C 577.021 829.996,574.418 833.000,574.057 833.000 C 573.695 833.000,570.848 829.899,567.730 826.109 C 553.277 808.541,535.963 790.928,523.724 781.345 L 520.972 779.190 524.615 773.074 C 526.619 769.710,528.649 766.717,529.125 766.423 C 529.602 766.128,530.516 767.038,531.156 768.444 C 531.797 769.850,532.664 771.000,533.084 771.000 C 533.503 771.000,537.143 766.066,541.173 760.035 C 545.203 754.004,549.025 749.054,549.666 749.035 C 550.307 749.016,553.382 751.813,556.498 755.250 M93.677 765.250 C 97.087 769.038,97.125 769.657,94.358 776.394 C 91.859 782.478,91.311 783.092,86.219 785.503 C 81.054 787.949,71.101 791.000,68.290 791.000 C 67.338 791.000,67.000 788.774,67.000 782.500 C 67.000 774.210,67.059 774.000,69.384 774.000 C 72.136 774.000,87.151 766.727,89.001 764.499 C 90.662 762.498,91.290 762.599,93.677 765.250 M730.317 765.426 C 735.262 769.195,746.151 773.998,749.750 773.999 L 753.000 774.000 753.000 782.500 C 753.000 790.655,752.909 790.999,750.750 790.976 C 746.567 790.930,739.532 788.915,732.850 785.848 C 726.640 782.998,726.067 782.455,724.197 777.648 C 723.095 774.817,721.902 771.776,721.544 770.890 C 720.976 769.484,725.177 763.000,726.656 763.000 C 726.918 763.000,728.566 764.092,730.317 765.426 M256.000 784.000 C 251.984 788.016,254.880 795.250,260.505 795.250 C 264.259 795.250,268.359 790.745,267.418 787.652 C 265.707 782.028,259.847 780.153,256.000 784.000 M552.655 783.829 C 550.394 786.327,550.554 791.287,552.967 793.470 C 559.184 799.097,567.929 789.929,562.000 784.000 C 559.501 781.501,554.839 781.416,552.655 783.829 M217.919 816.556 C 231.899 834.950,243.673 850.000,244.084 850.000 C 244.495 850.000,246.782 847.314,249.166 844.031 C 251.549 840.749,253.809 838.161,254.186 838.281 C 255.936 838.839,293.881 888.673,294.277 890.935 C 294.525 892.346,297.024 899.913,299.831 907.750 C 302.638 915.587,304.612 921.989,304.218 921.977 C 303.823 921.964,301.250 920.725,298.500 919.225 C 292.815 916.122,287.574 909.164,285.892 902.486 C 284.940 898.706,284.395 898.137,280.665 897.032 C 276.097 895.680,258.265 888.120,250.750 884.349 C 246.148 882.041,246.000 881.827,246.000 877.501 L 246.000 873.035 232.470 863.980 C 221.498 856.637,218.075 853.751,214.362 848.712 C 208.274 840.451,204.627 833.039,200.319 820.171 C 196.709 809.390,190.686 782.953,191.863 783.056 C 192.213 783.086,203.938 798.161,217.919 816.556 M624.945 792.250 C 620.111 817.736,611.823 839.165,602.294 850.810 C 600.314 853.230,592.923 859.032,585.439 864.041 L 572.111 872.961 571.806 877.718 L 571.500 882.475 559.000 888.214 C 552.125 891.370,543.496 894.941,539.825 896.149 C 533.419 898.257,533.109 898.509,532.118 902.423 C 529.977 910.874,522.508 919.329,515.307 921.452 C 513.231 922.064,513.359 921.418,517.704 909.299 C 520.228 902.260,522.803 894.620,523.426 892.322 C 524.224 889.374,530.288 880.763,544.024 863.072 C 554.730 849.282,563.717 838.010,563.995 838.021 C 564.273 838.033,566.514 840.733,568.976 844.021 C 571.438 847.310,573.739 850.000,574.088 850.000 C 574.614 850.000,617.212 794.711,623.566 785.781 C 624.629 784.286,625.770 783.049,626.100 783.031 C 626.430 783.014,625.910 787.163,624.945 792.250 M264.065 787.122 C 264.999 788.866,264.849 789.596,263.222 791.222 C 261.596 792.849,260.866 792.999,259.122 792.065 C 257.092 790.979,256.215 787.119,257.667 785.667 C 259.119 784.215,262.979 785.092,264.065 787.122 M560.810 788.183 C 561.264 792.115,557.797 793.797,555.000 791.000 C 552.203 788.203,553.885 784.736,557.817 785.190 C 559.887 785.429,560.571 786.113,560.810 788.183 M308.960 798.756 C 314.579 808.294,314.070 809.000,301.574 809.000 C 292.501 809.000,292.354 808.961,289.196 805.703 L 286.001 802.405 289.750 798.877 C 291.813 796.936,295.487 793.701,297.915 791.687 C 302.975 787.491,301.928 786.821,308.960 798.756 M520.715 792.189 C 522.797 793.943,526.187 796.959,528.250 798.892 L 531.999 802.405 528.804 805.703 C 525.646 808.961,525.499 809.000,516.426 809.000 C 503.701 809.000,503.389 808.445,509.977 797.539 C 512.813 792.842,515.538 789.000,516.032 789.000 C 516.526 789.000,518.634 790.435,520.715 792.189 M79.394 812.750 C 75.832 821.413,71.623 831.200,70.041 834.500 L 67.163 840.500 67.082 820.945 L 67.000 801.390 74.250 800.166 C 78.237 799.493,82.175 798.512,83.000 797.986 C 83.825 797.461,84.808 797.024,85.185 797.015 C 85.561 797.007,82.955 804.087,79.394 812.750 M741.000 799.614 C 744.025 800.359,747.962 800.976,749.750 800.984 L 753.000 801.000 753.000 822.000 C 753.000 833.550,752.783 843.000,752.517 843.000 C 751.669 843.000,747.375 833.884,741.680 819.991 C 738.638 812.571,735.210 804.312,734.062 801.638 C 732.161 797.208,732.132 796.842,733.738 797.518 C 734.707 797.926,737.975 798.869,741.000 799.614 M481.878 807.750 C 481.126 808.712,474.583 816.059,467.339 824.076 C 448.372 845.065,445.885 846.000,409.000 846.000 C 372.731 846.000,369.391 844.780,351.612 825.040 C 345.180 817.898,338.770 810.692,337.369 809.027 L 334.822 806.000 409.034 806.000 C 479.565 806.000,483.177 806.087,481.878 807.750 M339.000 820.117 C 357.999 841.561,360.429 843.868,367.241 846.937 C 375.961 850.867,382.298 852.000,395.549 852.000 L 407.000 852.000 407.000 860.000 L 407.000 868.000 391.088 868.000 C 368.727 868.000,356.464 865.329,342.100 857.328 C 337.089 854.537,331.647 849.697,319.500 837.228 C 310.700 828.195,303.350 820.398,303.167 819.902 C 302.983 819.406,305.472 819.000,308.698 819.000 C 314.539 819.000,314.586 818.976,320.500 813.000 C 323.766 809.700,326.676 807.031,326.969 807.069 C 327.261 807.107,332.675 812.979,339.000 820.117 M509.674 819.205 L 515.848 819.500 498.674 837.030 C 484.285 851.718,480.365 855.143,474.500 858.156 C 459.706 865.757,448.838 868.000,426.816 868.000 L 411.000 868.000 411.000 860.000 L 411.000 852.000 422.750 851.985 C 436.434 851.968,444.832 850.273,453.123 845.854 C 457.797 843.363,462.089 839.250,475.103 824.794 L 491.275 806.830 497.387 812.870 C 503.399 818.811,503.602 818.915,509.674 819.205 M302.861 834.674 C 315.602 847.970,328.237 860.472,330.939 862.455 C 337.243 867.083,348.573 872.308,358.605 875.213 C 366.279 877.436,367.692 877.500,409.000 877.500 C 457.510 877.500,458.165 877.412,477.000 868.327 C 485.783 864.091,487.523 862.717,500.058 850.122 C 507.514 842.630,519.372 830.478,526.407 823.118 L 539.199 809.737 542.290 812.829 C 545.114 815.653,545.250 816.075,543.859 817.710 C 513.066 853.905,497.078 871.447,491.624 875.020 C 472.713 887.407,446.457 891.812,398.500 890.642 C 363.305 889.783,345.494 886.240,330.000 877.014 C 320.939 871.619,319.728 870.409,296.952 844.000 C 285.805 831.075,275.775 819.484,274.662 818.243 L 272.639 815.987 275.522 812.977 C 277.107 811.322,278.695 810.088,279.050 810.234 C 279.406 810.380,290.120 821.378,302.861 834.674 M291.608 847.235 C 304.128 861.664,316.201 875.010,318.436 876.894 C 323.431 881.103,340.236 889.136,348.953 891.481 C 360.479 894.582,372.167 896.076,389.750 896.695 L 407.000 897.303 407.000 906.255 L 407.000 915.207 379.250 914.761 C 353.307 914.344,350.971 914.154,343.382 911.845 C 333.277 908.772,321.688 902.219,313.911 895.181 C 308.984 890.723,262.481 832.703,261.733 830.081 C 261.512 829.308,267.676 821.000,268.469 821.000 C 268.675 821.000,279.088 832.806,291.608 847.235 M555.090 827.129 L 556.964 829.758 534.863 858.129 C 522.707 873.733,510.678 888.678,508.131 891.340 C 499.006 900.876,486.809 908.269,473.839 912.126 C 467.271 914.079,463.584 914.355,438.750 914.748 L 411.000 915.187 411.000 906.093 L 411.000 897.000 421.826 897.000 C 444.431 897.000,467.519 893.219,481.955 887.154 C 496.309 881.123,500.359 877.523,525.725 848.251 C 548.676 821.766,549.395 821.047,551.278 822.749 C 552.344 823.712,554.059 825.683,555.090 827.129 M231.250 875.535 C 235.777 878.856,236.000 879.246,236.000 883.837 L 236.000 888.655 246.000 893.451 C 251.500 896.089,256.007 898.304,256.017 898.373 C 256.153 899.416,258.963 949.146,258.979 950.782 C 258.999 952.935,258.677 952.829,253.250 948.898 C 250.088 946.608,244.688 941.994,241.250 938.646 L 235.000 932.558 235.000 921.076 C 235.000 909.599,234.999 909.594,231.909 906.406 C 228.995 903.400,228.710 902.393,226.945 888.858 C 224.775 872.218,224.759 871.992,225.750 872.025 C 226.162 872.038,228.637 873.618,231.250 875.535 M592.960 873.750 C 592.939 874.712,592.120 881.695,591.140 889.267 C 589.454 902.298,589.189 903.210,586.180 906.315 L 583.000 909.595 583.000 921.206 L 583.000 932.816 578.750 937.187 C 574.444 941.616,559.805 953.139,559.224 952.557 C 559.050 952.383,559.603 940.374,560.452 925.870 C 561.302 911.367,561.998 899.218,561.999 898.873 C 561.999 898.529,566.500 896.089,572.000 893.451 L 582.000 888.655 582.000 883.837 C 582.000 879.246,582.223 878.856,586.750 875.535 C 592.178 871.552,593.016 871.312,592.960 873.750 M269.276 903.834 C 275.646 906.522,276.152 906.985,279.048 912.781 C 283.382 921.453,291.216 928.369,299.661 930.977 C 303.263 932.090,306.796 933.000,307.511 933.000 C 308.231 933.000,310.141 936.678,311.796 941.250 C 323.774 974.360,329.188 990.145,328.724 990.609 C 328.131 991.202,266.199 957.600,264.358 955.687 C 262.821 954.089,260.075 900.998,261.529 900.999 C 262.095 901.000,265.581 902.275,269.276 903.834 M557.633 903.750 C 557.343 905.263,556.560 917.454,555.893 930.842 L 554.679 955.184 551.089 957.468 C 543.083 962.563,489.823 991.156,489.305 990.638 C 488.894 990.227,501.943 952.371,508.716 934.325 C 508.958 933.678,511.012 932.836,513.280 932.453 C 524.021 930.638,534.278 922.737,539.122 912.548 C 541.834 906.842,542.232 906.482,548.726 903.850 C 557.470 900.306,558.293 900.297,557.633 903.750 M321.112 913.023 C 324.748 915.245,330.823 918.238,334.612 919.673 C 338.400 921.108,341.842 922.583,342.259 922.950 C 342.676 923.318,345.486 937.541,348.502 954.559 C 351.518 971.577,354.249 986.737,354.572 988.250 L 355.159 991.000 347.829 990.993 L 340.500 990.986 329.000 958.755 C 308.145 900.306,309.885 905.664,312.334 907.426 C 313.525 908.282,317.475 910.801,321.112 913.023 M505.660 912.250 C 504.382 915.688,497.525 934.813,490.422 954.750 L 477.506 991.000 470.186 991.000 C 463.682 991.000,462.923 990.805,463.386 989.250 C 463.673 988.288,466.446 973.100,469.548 955.500 C 472.651 937.900,475.485 923.218,475.845 922.873 C 476.205 922.529,479.097 921.294,482.271 920.130 C 489.728 917.394,496.259 914.001,502.500 909.620 C 505.250 907.690,507.609 906.085,507.741 906.055 C 507.874 906.025,506.938 908.813,505.660 912.250 M468.453 926.500 C 468.200 927.600,465.738 941.325,462.981 957.000 C 460.224 972.675,457.715 986.737,457.405 988.250 L 456.841 991.000 409.011 991.000 L 361.181 991.000 359.961 983.750 C 359.290 979.763,356.648 964.800,354.089 950.500 L 349.437 924.500 409.175 924.500 C 468.399 924.500,468.909 924.517,468.453 926.500 M235.069 947.358 C 244.495 956.085,254.545 962.565,282.000 977.616 L 305.500 990.500 293.436 990.779 L 281.371 991.059 259.517 980.497 C 247.498 974.688,234.904 967.966,231.531 965.559 C 225.345 961.145,218.000 953.805,218.000 952.038 C 218.000 951.512,219.226 949.052,220.725 946.571 C 223.155 942.547,224.405 941.517,227.351 941.116 C 227.819 941.052,231.292 943.861,235.069 947.358 M593.601 941.765 C 595.249 942.866,600.000 950.751,600.000 952.386 C 600.000 953.171,596.737 956.843,592.750 960.546 C 586.254 966.579,582.992 968.514,561.371 979.171 L 537.241 991.063 524.904 990.782 L 512.566 990.500 536.033 977.640 C 563.976 962.327,573.355 956.273,582.589 947.587 C 589.288 941.286,591.294 940.225,593.601 941.765 M216.324 960.401 C 217.836 964.343,232.182 973.939,248.896 982.189 L 266.500 990.879 233.750 990.939 C 215.738 990.973,201.000 990.863,201.000 990.695 C 201.000 990.527,203.516 984.340,206.590 976.945 C 209.665 969.550,212.579 962.487,213.065 961.250 C 214.068 958.701,215.526 958.322,216.324 960.401 M610.877 975.398 C 614.265 983.591,616.873 990.460,616.671 990.662 C 616.470 990.864,601.951 990.910,584.407 990.764 L 552.510 990.500 569.005 982.395 C 584.980 974.546,594.334 968.502,600.443 962.081 C 602.062 960.379,603.686 959.327,604.051 959.743 C 604.416 960.160,607.488 967.204,610.877 975.398 " fill-rule="evenodd" stroke="black" fill="none"></path></svg>